<svg xmlns="http://www.w3.org/2000/svg" viewBox="0 0 178.7 172.45"><defs><style>.cls-1{fill:none;stroke:#231f20;stroke-miterlimit:10;}.cls-2{fill:#fbb040;}</style></defs><g id="Layer_2" data-name="Layer 2"><g id="Layer_1-2" data-name="Layer 1"><path class="cls-1" d="M138.17,108.51a4.93,4.93,0,0,0-1.41,4.36l9.1,53.3a4.92,4.92,0,0,1-7.14,5.2C124.44,163.39,92.5,145,89.47,145L89.61.57c1.74-.17,2.7,1,3.61,2.8L117,51.86a4.94,4.94,0,0,0,3.7,2.71L174,62.34a4.94,4.94,0,0,1,2.73,8.42Z"/><path class="cls-2" d="M90.14,0V145.64a4.79,4.79,0,0,0-2.3.48l-48,25.25a5,5,0,0,1-7.19-5.22l9.17-53.49a4.93,4.93,0,0,0-1.43-4.38L1.5,70.4a5,5,0,0,1,2.75-8.46L58,54.14a5,5,0,0,0,3.73-2.71l24-48.66A4.88,4.88,0,0,1,90.14,0Z"/></g></g></svg>