<svg xmlns="http://www.w3.org/2000/svg" viewBox="0 0 181.91 173.5"><defs><style>.cls-1{fill:#fbb040;}</style></defs><g id="Layer_2" data-name="Layer 2"><g id="Layer_1-2" data-name="Layer 1"><path class="cls-1" d="M95.44,2.79l24.23,49.1a5,5,0,0,0,3.77,2.73l54.18,7.88A5,5,0,0,1,180.39,71l-39.21,38.22a5,5,0,0,0-1.43,4.42l9.25,54a5,5,0,0,1-7.25,5.27L93.28,147.43a5,5,0,0,0-4.65,0L40.16,172.91a5,5,0,0,1-7.25-5.27l9.25-54a5,5,0,0,0-1.44-4.42L1.52,71A5,5,0,0,1,4.29,62.5l54.18-7.88a5,5,0,0,0,3.77-2.73L86.47,2.79A5,5,0,0,1,95.44,2.79Z"/></g></g></svg>