<svg width="390" height="56" viewBox="0 0 390 56" fill="none" xmlns="http://www.w3.org/2000/svg">
<path fill-rule="evenodd" clip-rule="evenodd" d="M390 0H0V49V50V56L6.85714 50H7.6473L16.5 56L25.3527 50H27.4171L35.5 56L43.5829 50H45.6473L54.5 56L63.3527 50H64.6473L73.5 56L82.3527 50H83.5322L92 56L100.468 50H101.532L110 56L118.468 50H120.532L129 56L137.468 50H139.417L147.5 56L155.583 50H157.417L165.5 56L173.583 50H175.532L184 56L192.468 50H194.532L203 56L211.468 50H213.532L222 56L230.468 50H232.187L239.5 56L246.813 50H248.647L257.5 56L266.353 50H268.417L276.5 56L284.583 50H286.647L295.5 56L304.353 50H305.532L314 56L322.468 50H323.762L333 56L342.238 50H344.417L352.5 56L360.583 50H362.532L371 56L379.468 50H380.571L390 56V50V49V0Z" fill="#E64430"/>
</svg>
