<svg width="391" height="86" viewBox="0 0 391 86" fill="none" xmlns="http://www.w3.org/2000/svg">
<rect x="1" y="-35" width="390" height="5393" fill="white"/>
<rect width="391" height="84" transform="translate(0 -36)" fill="#630128"/>
<path d="M148.498 18.5624C149.178 18.9215 149.711 19.4151 150.095 20.0435C150.48 20.6718 150.672 21.3974 150.672 22.2202C150.672 23.5068 150.221 24.5764 149.319 25.4292C148.417 26.2819 147.315 26.7083 146.013 26.7083H139.356V11H145.525C146.797 11 147.869 11.4189 148.742 12.2567C149.63 13.0795 150.073 14.1117 150.073 15.3534C150.073 16.7148 149.548 17.7845 148.498 18.5624ZM145.525 13.4236H141.908V17.5526H145.525C146.087 17.5526 146.56 17.3581 146.945 16.9691C147.329 16.5652 147.522 16.0715 147.522 15.4881C147.522 14.9046 147.329 14.4184 146.945 14.0295C146.56 13.6255 146.087 13.4236 145.525 13.4236ZM146.013 24.2847C146.605 24.2847 147.1 24.0753 147.499 23.6564C147.914 23.2225 148.121 22.6989 148.121 22.0856C148.121 21.4722 147.914 20.9561 147.499 20.5372C147.1 20.1033 146.605 19.8864 146.013 19.8864H141.908V24.2847H146.013Z" fill="white"/>
<path d="M161.638 15.4881H164.035V26.7083H161.638V25.0926C160.736 26.3642 159.442 27 157.756 27C156.232 27 154.93 26.4315 153.85 25.2945C152.771 24.1426 152.231 22.7438 152.231 21.0982C152.231 19.4376 152.771 18.0388 153.85 16.9018C154.93 15.7648 156.232 15.1964 157.756 15.1964C159.442 15.1964 160.736 15.8247 161.638 17.0813V15.4881ZM155.625 23.6788C156.291 24.352 157.127 24.6886 158.133 24.6886C159.139 24.6886 159.974 24.352 160.64 23.6788C161.306 22.9907 161.638 22.1304 161.638 21.0982C161.638 20.0659 161.306 19.2132 160.64 18.54C159.974 17.8518 159.139 17.5077 158.133 17.5077C157.127 17.5077 156.291 17.8518 155.625 18.54C154.96 19.2132 154.627 20.0659 154.627 21.0982C154.627 22.1304 154.96 22.9907 155.625 23.6788Z" fill="white"/>
<path d="M169.69 24.4194H175.082V26.7083H166.428V25.0926L171.62 17.777H166.65V15.4881H174.86V17.1038L169.69 24.4194Z" fill="white"/>
<path d="M185.43 15.4881H187.826V26.7083H185.43V25.0926C184.528 26.3642 183.233 27 181.547 27C180.023 27 178.722 26.4315 177.642 25.2945C176.562 24.1426 176.022 22.7438 176.022 21.0982C176.022 19.4376 176.562 18.0388 177.642 16.9018C178.722 15.7648 180.023 15.1964 181.547 15.1964C183.233 15.1964 184.528 15.8247 185.43 17.0813V15.4881ZM179.417 23.6788C180.083 24.352 180.918 24.6886 181.924 24.6886C182.93 24.6886 183.766 24.352 184.431 23.6788C185.097 22.9907 185.43 22.1304 185.43 21.0982C185.43 20.0659 185.097 19.2132 184.431 18.54C183.766 17.8518 182.93 17.5077 181.924 17.5077C180.918 17.5077 180.083 17.8518 179.417 18.54C178.751 19.2132 178.419 20.0659 178.419 21.0982C178.419 22.1304 178.751 22.9907 179.417 23.6788Z" fill="white"/>
<path d="M199.406 15.4881H201.802V26.7083H199.406V25.0926C198.504 26.3642 197.209 27 195.523 27C193.999 27 192.698 26.4315 191.618 25.2945C190.538 24.1426 189.998 22.7438 189.998 21.0982C189.998 19.4376 190.538 18.0388 191.618 16.9018C192.698 15.7648 193.999 15.1964 195.523 15.1964C197.209 15.1964 198.504 15.8247 199.406 17.0813V15.4881ZM193.393 23.6788C194.058 24.352 194.894 24.6886 195.9 24.6886C196.906 24.6886 197.742 24.352 198.407 23.6788C199.073 22.9907 199.406 22.1304 199.406 21.0982C199.406 20.0659 199.073 19.2132 198.407 18.54C197.742 17.8518 196.906 17.5077 195.9 17.5077C194.894 17.5077 194.058 17.8518 193.393 18.54C192.727 19.2132 192.394 20.0659 192.394 21.0982C192.394 22.1304 192.727 22.9907 193.393 23.6788Z" fill="white"/>
<path d="M206.992 17.3731C207.598 15.9818 208.737 15.2861 210.408 15.2861V17.9116C209.491 17.8518 208.693 18.0762 208.012 18.5849C207.332 19.0785 206.992 19.9014 206.992 21.0533V26.7083H204.595V15.4881H206.992V17.3731Z" fill="white"/>
<path d="M220.566 11H224.516V26.7083H221.454L215.973 18.8093V26.7083H212.002V11H215.086L220.566 18.899V11Z" fill="white"/>
<path d="M239.644 26.7083H235.206L232.765 22.5344L230.325 26.7083H225.865L230.546 18.6971L226.042 11H230.502L232.765 14.8822L235.028 11H239.488L234.984 18.7195L239.644 26.7083Z" fill="white"/>
<path d="M251.644 11V14.8822H247.805V26.7083H243.833V14.8822H239.995V11H251.644Z" fill="white"/>
<path d="M175.943 47.2399C176.152 47.9033 176.384 48.5601 176.64 49.2105C175.789 49.3891 174.939 49.5677 174.089 49.7463C174.768 49.7257 175.451 49.7668 176.124 49.8689C175.285 50.522 174.445 51.1741 173.606 51.8262C174.383 51.5437 175.197 51.3433 176.026 51.2296C175.74 52.177 175.483 53.1327 175.257 54.0948C175.844 53.2904 176.39 52.4607 176.896 51.6092C177.609 52.8133 178.353 54.0037 179.126 55.1777C179.006 54.0103 178.888 52.8423 178.769 51.6749C179.853 52.1747 180.969 52.6143 182.106 52.9893C181.287 52.4428 180.446 51.9224 179.589 51.4301C180.623 51.3228 181.658 51.2155 182.693 51.1084C181.581 50.8695 180.479 50.587 179.391 50.2613C180.046 49.8471 180.702 49.433 181.357 49.0187C180.694 49.1803 180.049 49.4001 179.433 49.6764C179.931 48.9646 180.198 48.1123 180.192 47.2531C179.586 47.8016 178.979 48.3501 178.373 48.8987C178.309 47.9673 178.14 47.0385 177.87 46.1344C177.81 46.6331 177.751 47.132 177.692 47.6297C177.657 47.9269 177.704 48.7944 177.459 48.9664C176.865 48.5257 176.376 47.8136 175.942 47.2398L175.943 47.2399Z" fill="#FFDF24"/>
<path d="M175.587 51.0947C176.087 50.912 176.588 50.7283 177.088 50.5456C176.845 50.9374 176.584 51.319 176.304 51.6898C176.773 51.3864 177.22 51.056 177.643 50.7011C177.737 51.1353 177.868 51.5644 178.032 51.982C178.045 51.5978 178.093 51.2159 178.175 50.841C178.538 51.0446 178.901 51.2491 179.264 51.4527C179.044 51.1934 178.825 50.9341 178.605 50.6757C178.939 50.6152 179.281 50.587 179.623 50.5888C179.331 50.5388 179.038 50.4897 178.745 50.4396C179.023 50.2995 179.277 50.1185 179.494 49.9058C179.138 50.0398 178.771 50.1465 178.395 50.2229C178.574 49.9193 178.753 49.6168 178.932 49.3131C178.741 49.5132 178.531 49.6971 178.302 49.8594C178.329 49.4652 178.358 49.072 178.385 48.6778C178.266 49.021 178.132 49.3606 177.985 49.6939C177.652 49.4416 177.319 49.1902 176.987 48.9378C177.155 49.1997 177.323 49.4605 177.492 49.7224C177.105 49.7068 176.718 49.6556 176.339 49.568C176.501 49.7581 176.868 50.1055 176.868 50.1055C176.868 50.1055 175.945 50.7969 175.585 51.0954L175.587 51.0947Z" fill="#FF5310"/>
<path d="M183.735 42.1639C183.23 42.8222 182.364 43.0695 181.546 43.2433C180.57 43.4517 179.596 43.6103 178.681 43.9968C177.721 44.4034 176.847 44.9826 176.13 45.6971C175.743 46.0835 175.386 46.5102 175.202 47.0186C175.028 47.4962 175.002 48.0277 175.125 48.5252C175.405 49.6525 176.424 50.5059 177.642 50.6999C177.82 50.7286 177.987 50.5823 177.999 50.4241C178.014 50.2479 177.87 50.1132 177.692 50.0855C176.785 49.9419 176.001 49.2818 175.785 48.4471C175.675 48.0216 175.693 47.5784 175.855 47.1733C176.031 46.7347 176.363 46.3618 176.712 46.0323C177.405 45.3754 178.231 44.8513 179.144 44.4887C179.984 44.1556 180.879 44.0274 181.765 43.8321C182.726 43.6209 183.692 43.2966 184.283 42.5278C184.529 42.2073 183.98 41.843 183.734 42.1628L183.735 42.1639Z" fill="#896851"/>
<path d="M165.487 46.1356C165.487 46.1356 164.782 46.1439 164.392 44.9914C163.98 43.7711 164.588 43.4972 164.588 43.4972L185.973 37.7068L186.871 40.3451L165.487 46.1356Z" fill="#FFDF24"/>
<path d="M186.617 39.5966L165.232 45.387C165.232 45.387 164.686 45.3925 164.289 44.6069C164.312 44.7232 164.345 44.8507 164.392 44.9915C164.782 46.144 165.487 46.1358 165.487 46.1358L186.872 40.3454L186.617 39.5966V39.5966Z" fill="#FFBC27"/>
<path d="M180.78 39.1132C180.78 39.1132 180.898 39.8763 180.555 40.6938C180.211 41.5112 179.672 42.2949 179.672 42.2949L182.966 41.429C182.966 41.429 182.435 38.6241 182.406 38.6315C182.376 38.6397 180.78 39.1132 180.78 39.1132V39.1132Z" fill="#FFBC27"/>
<path d="M185.835 45.663C185.835 45.663 183.946 46.438 181.806 40.1419C179.745 34.0752 181.712 33.5556 181.712 33.5556L209.066 26.1498L213.189 38.2572L185.835 45.6639L185.835 45.663Z" fill="#AA6CD3"/>
<path d="M207.21 39.8746C206.66 38.1349 205.983 34.8799 205.977 34.4893C205.912 30.5861 206.894 27.4098 207.235 26.6442L202.66 27.8836C202.51 28.3489 202.394 28.8087 202.298 29.2148C201.838 31.1434 201.8 33.1467 201.843 35.1257C201.886 37.1272 202.028 39.2108 202.802 41.0683L207.21 39.8746V39.8746Z" fill="#FFDF24"/>
<path d="M205.675 27.0669C205.675 27.0669 204.258 30.222 204.459 33.5289C204.659 36.8357 205.762 40.267 205.762 40.267L204.632 40.5728C204.632 40.5728 203.527 36.9323 203.511 33.7848C203.494 30.3047 204.404 27.4105 204.404 27.4105L205.675 27.066L205.675 27.0669Z" fill="#47D658"/>
<path d="M198.27 42.2963C197.72 40.5566 197.044 37.3015 197.037 36.9109C196.973 33.0078 197.954 29.8314 198.295 29.0658L193.72 30.3052C193.57 30.7705 193.454 31.2303 193.358 31.6364C192.899 33.565 192.86 35.5683 192.903 37.5473C192.946 39.5488 193.088 41.6324 193.862 43.49L198.27 42.2963Z" fill="#FFDF24"/>
<path d="M196.735 29.4876C196.735 29.4876 195.318 32.6426 195.519 35.9496C195.719 39.2564 196.822 42.6877 196.822 42.6877L195.692 42.9934C195.692 42.9934 194.587 39.3529 194.571 36.2054C194.554 32.7254 195.464 29.8312 195.464 29.8312L196.735 29.4866L196.735 29.4876Z" fill="#47D658"/>
<path d="M190.263 44.464C189.712 42.7243 189.036 39.4693 189.03 39.0786C188.965 35.1755 189.946 31.9991 190.288 31.2335L185.713 32.4729C185.563 32.9382 185.447 33.398 185.35 33.8042C184.891 35.7327 184.853 37.7361 184.895 39.7151C184.939 41.7165 185.081 43.8002 185.855 45.6577L190.263 44.464V44.464Z" fill="#FFDF24"/>
<path d="M188.728 31.6563C188.728 31.6563 187.311 34.8113 187.512 38.1183C187.712 41.4251 188.815 44.8564 188.815 44.8564L187.685 45.1621C187.685 45.1621 186.579 41.5216 186.563 38.3741C186.547 34.8941 187.457 31.9999 187.457 31.9999L188.728 31.6553L188.728 31.6563Z" fill="#47D658"/>
<path opacity="0.46" d="M207.233 28.3824C206.91 28.2061 206.511 28.2214 206.148 28.2788C205.219 28.4278 204.364 28.8143 203.51 29.176C200.685 30.3723 197.737 31.3306 194.713 32.0337C193.59 32.2952 192.385 32.5578 191.612 33.3472C191.426 33.5356 191.265 33.7901 191.346 34.0384C191.471 34.4181 192.022 34.4773 192.441 34.4262C193.499 34.2959 194.502 33.9493 195.495 33.6007C198.433 32.5703 201.401 31.4987 204.545 31.2046C205.269 31.1369 206.02 31.1058 206.669 30.8113C207.473 30.4457 208.352 28.9938 207.234 28.3826L207.233 28.3824Z" fill="white"/>
<path d="M207.784 26.4961C207.784 26.4961 207.757 30.8112 208.263 34.2023C208.77 37.5934 209.096 39.3657 209.096 39.3657L212.917 38.2881L209.066 26.1497L207.784 26.4971L207.784 26.4961Z" fill="#8C5DB2"/>
<path d="M223.47 28.8603L208.322 23.9649C208.322 23.9649 207.156 24.2808 209.851 32.5484C212.546 40.8161 213.931 40.4406 213.931 40.4406L223.47 28.8603Z" fill="#47D658"/>
<path d="M213.932 40.4409L223.47 28.8604C223.327 29.0341 215.598 34.1756 211.47 36.9161C213.099 40.6641 213.932 40.4409 213.932 40.4409Z" fill="#3DB248"/>
<path opacity="0.46" d="M215.75 27.0562C215.188 26.9003 214.625 26.7433 214.052 26.629C213.768 26.5718 213.446 26.5321 213.215 26.6872C212.99 26.8386 212.929 27.1448 213.023 27.3934C213.115 27.6427 213.334 27.839 213.575 27.9804C214.518 28.5324 215.721 28.3295 216.811 28.5036C217.356 28.5908 221.035 30.0103 220.852 28.8838C220.744 28.2132 219.159 28.0034 218.642 27.8594C217.679 27.5918 216.715 27.324 215.75 27.0562V27.0562Z" fill="white"/>
<path opacity="0.46" d="M212.196 26.6069C212.138 26.2351 211.662 26.0627 211.261 26.0118C210.858 25.9614 210.365 25.9997 210.182 26.3314C210.075 26.5232 210.113 26.7667 210.227 26.96C210.343 27.1534 210.525 27.3046 210.713 27.4405C210.92 27.5893 211.145 27.7258 211.396 27.7879C211.648 27.8499 211.932 27.8289 212.134 27.6839C212.517 27.4088 212.448 26.8439 212.239 26.4269L212.195 26.6067L212.196 26.6069Z" fill="white"/>
<path d="M257.675 14.7136C257.752 14.6093 256.656 10.226 256.656 10.226L256.639 14.4624L253.617 12.8508L255.946 15.1737L249.096 14.7254L255.586 16.0874L248.988 18.1065L255.433 17.276L250.787 19.9121L255.467 18.4183L253.828 23.4088L257.526 18.4105L257.648 21.3696L258.534 18.2132L263.912 23.3092L259.548 17.2783L265.277 18.2847L260.026 16.1561L265.998 15.6772L260.203 15.092L262.586 13.1019L259.453 14.5465L260.392 9.22449L258.571 14.1494L258.395 11.1554L257.675 14.7136V14.7136Z" fill="#FFFC92"/>
<path d="M259.374 14.479C259.503 14.4632 261.94 10.655 261.94 10.655L258.845 13.5563L257.939 10.2597L257.85 13.5437L253.466 8.27505L256.938 13.9111L250.93 10.5219L255.967 14.6175L250.853 13.0665L255.159 15.4278L250.399 17.6732L256.58 16.9133L254.51 19.0367L257.417 17.5077L257.407 24.9065L258.795 17.5987L262.003 22.4395L259.941 17.173L264.396 21.1681L260.837 16.5691L263.924 16.9258L260.718 15.6509L265.238 12.6712L260.401 14.7402L262.459 12.5533L259.374 14.479Z" fill="#FFDF24"/>
<path d="M241.209 38.7097C241.209 38.7097 241.079 38.8829 240.879 38.7341C240.663 38.5728 240.756 38.3656 240.756 38.3656L250.34 25.8293L250.792 26.1736L241.209 38.7096L241.209 38.7097Z" fill="#70778C"/>
<path d="M248.274 28.999C248.879 29.4824 249.314 28.8592 249.314 28.8592L258.503 16.8385L258.363 15.8011L257.323 15.9409L248.134 27.9616C248.134 27.9616 247.695 28.5355 248.274 28.999Z" fill="#8A93AA"/>
<path d="M248.34 29.381L247.596 29.4186L248.082 28.7822L248.535 29.1265L248.34 29.381Z" fill="#585E6B"/>
<path d="M259.944 15.1C259.533 15.2687 259.122 15.4372 258.712 15.6059C258.942 15.0807 259.073 14.5118 259.094 13.9388C258.835 14.414 258.591 14.8981 258.365 15.3894C258.224 14.7192 258.001 14.0662 257.703 13.4493C257.709 14.0262 257.789 14.603 257.939 15.1602C257.615 14.615 257.193 14.1277 256.699 13.7286C257.015 14.2813 257.332 14.8342 257.648 15.3869C256.73 15.4549 255.825 15.6965 254.995 16.0957C255.795 16.2038 256.595 16.3121 257.395 16.4202C257.091 17.0934 256.757 17.7541 256.397 18.3993C256.849 17.818 257.302 17.2367 257.754 16.655C257.708 16.9844 258.64 18.8952 258.957 19.5404C258.823 18.606 258.688 17.6711 258.554 16.736C259.247 17.368 259.985 17.9525 260.759 18.4834C260.388 17.8567 259.971 17.2567 259.513 16.6897C259.95 16.7026 260.387 16.7155 260.823 16.7281C260.368 16.5038 259.038 15.9629 259.038 15.9629C259.038 15.9629 259.747 15.2694 259.943 15.0998L259.944 15.1Z" fill="#FFFC92"/>
<path d="M259.037 15.782C258.79 15.825 258.548 15.9028 258.322 16.0124C258.433 15.7747 258.532 15.531 258.618 15.2827C258.472 15.5048 258.327 15.7275 258.181 15.9496C258.207 15.6689 258.186 15.3842 258.119 15.1101C258.093 15.3633 258.066 15.6163 258.04 15.8695C258.009 15.6402 257.939 15.4161 257.833 15.21C257.865 15.4313 257.914 15.6501 257.982 15.8632C257.708 15.7021 257.363 15.7487 257.049 15.8001C257.286 15.9047 257.533 15.9869 257.786 16.0444C257.672 16.2656 257.558 16.4869 257.444 16.7084C257.6 16.5519 257.756 16.396 257.912 16.2395C257.882 16.5813 257.919 16.9286 258.02 17.2562C258.039 16.9403 258.059 16.624 258.078 16.3081C258.186 16.5825 258.293 16.8563 258.401 17.1306C258.344 16.8803 258.31 16.6249 258.299 16.3684C258.603 16.5062 258.9 16.6612 259.187 16.8319C258.997 16.6683 258.808 16.5044 258.618 16.3407C258.815 16.3657 259.011 16.3904 259.208 16.4154C259.09 16.3504 258.748 16.2351 258.694 16.1084C258.627 15.9509 258.961 15.8816 259.037 15.782L259.037 15.782Z" fill="white"/>
<path opacity="0.46" d="M253.317 23.1419C252.017 24.561 251.059 26.2838 249.787 27.7335C249.713 27.8178 249.618 27.9113 249.536 27.9041C249.458 27.8971 249.436 27.7954 249.466 27.7005C249.496 27.6055 249.563 27.5169 249.628 27.4332C250.793 25.9285 251.957 24.4241 253.121 22.9191C253.18 22.843 253.242 22.7639 253.319 22.7175C253.669 22.5069 253.457 22.9887 253.316 23.1422L253.317 23.1419Z" fill="white"/>
<path opacity="0.46" d="M254.069 22.2324C254.135 22.1994 254.166 22.131 254.196 22.0667C254.412 21.6115 254.736 21.2194 255.144 20.9181C255.236 20.8511 255.333 20.7863 255.388 20.6895C255.444 20.5926 255.449 20.4536 255.363 20.3413C255.238 20.3272 255.164 20.4256 255.105 20.5131C254.756 21.0337 254.295 21.4671 253.858 21.9185C253.737 22.0437 253.843 22.3461 254.069 22.2325L254.069 22.2324Z" fill="white"/>
<path d="M130.169 13.7136C130.092 13.6093 131.188 9.22602 131.188 9.22602L131.205 13.4624L134.227 11.8508L131.898 14.1737L138.748 13.7254L132.258 15.0874L138.856 17.1065L132.411 16.276L137.057 18.9121L132.377 17.4183L134.016 22.4088L130.318 17.4105L130.196 20.3696L129.31 17.2132L123.932 22.3092L128.297 16.2783L122.567 17.2847L127.818 15.1561L121.846 14.6772L127.641 14.092L125.259 12.1019L128.391 13.5465L127.452 8.22449L129.273 13.1494L129.449 10.1554L130.169 13.7136V13.7136Z" fill="#FFFC92"/>
<path d="M128.47 13.479C128.341 13.4632 125.905 9.65496 125.905 9.65496L129 12.5563L129.905 9.25967L129.994 12.5437L134.379 7.27505L130.906 12.9111L136.914 9.52188L131.877 13.6175L136.991 12.0665L132.686 14.4278L137.445 16.6732L131.264 15.9133L133.334 18.0367L130.427 16.5077L130.437 23.9065L129.049 16.5987L125.841 21.4395L127.903 16.173L123.448 20.1681L127.007 15.5691L123.92 15.9258L127.126 14.6509L122.606 11.6712L127.443 13.7402L125.385 11.5533L128.47 13.479Z" fill="#FFDF24"/>
<path d="M146.635 37.7097C146.635 37.7097 146.766 37.8829 146.965 37.7341C147.181 37.5728 147.088 37.3656 147.088 37.3656L137.504 24.8293L137.052 25.1736L146.635 37.7096L146.635 37.7097Z" fill="#70778C"/>
<path d="M139.57 27.999C138.965 28.4824 138.53 27.8592 138.53 27.8592L129.341 15.8385L129.481 14.8011L130.521 14.9409L139.71 26.9616C139.71 26.9616 140.149 27.5355 139.57 27.999Z" fill="#8A93AA"/>
<path d="M139.504 28.381L140.248 28.4186L139.762 27.7822L139.309 28.1265L139.504 28.381Z" fill="#585E6B"/>
<path d="M127.9 14.1C128.311 14.2687 128.722 14.4372 129.133 14.6059C128.902 14.0807 128.771 13.5118 128.75 12.9388C129.009 13.414 129.253 13.8981 129.48 14.3894C129.62 13.7192 129.843 13.0662 130.141 12.4493C130.135 13.0262 130.056 13.603 129.905 14.1602C130.229 13.615 130.651 13.1277 131.145 12.7286C130.829 13.2813 130.512 13.8342 130.196 14.3869C131.114 14.4549 132.019 14.6965 132.849 15.0957C132.049 15.2038 131.249 15.3121 130.449 15.4202C130.754 16.0934 131.087 16.7541 131.447 17.3993C130.995 16.818 130.542 16.2367 130.09 15.655C130.136 15.9844 129.204 17.8952 128.887 18.5404C129.021 17.606 129.156 16.6711 129.29 15.736C128.597 16.368 127.86 16.9525 127.086 17.4834C127.456 16.8567 127.873 16.2567 128.331 15.6897C127.894 15.7026 127.457 15.7155 127.021 15.7281C127.476 15.5038 128.806 14.9629 128.806 14.9629C128.806 14.9629 128.097 14.2694 127.901 14.0998L127.9 14.1Z" fill="#FFFC92"/>
<path d="M128.807 14.782C129.055 14.825 129.296 14.9028 129.522 15.0124C129.411 14.7747 129.312 14.531 129.227 14.2827C129.372 14.5048 129.517 14.7275 129.663 14.9496C129.637 14.6689 129.658 14.3842 129.725 14.1101C129.752 14.3633 129.778 14.6163 129.804 14.8695C129.835 14.6402 129.905 14.4161 130.011 14.21C129.979 14.4313 129.93 14.6501 129.862 14.8632C130.137 14.7021 130.481 14.7487 130.795 14.8001C130.558 14.9047 130.311 14.9869 130.058 15.0444C130.172 15.2656 130.286 15.4869 130.4 15.7084C130.244 15.5519 130.088 15.396 129.932 15.2395C129.962 15.5813 129.925 15.9286 129.824 16.2562C129.805 15.9403 129.785 15.624 129.766 15.3081C129.658 15.5825 129.551 15.8563 129.443 16.1306C129.5 15.8803 129.535 15.6249 129.546 15.3684C129.241 15.5062 128.944 15.6612 128.657 15.8319C128.847 15.6683 129.036 15.5044 129.226 15.3407C129.029 15.3657 128.833 15.3904 128.636 15.4154C128.754 15.3504 129.096 15.2351 129.15 15.1084C129.217 14.9509 128.884 14.8816 128.808 14.782L128.807 14.782Z" fill="white"/>
<path opacity="0.46" d="M134.528 22.1419C135.827 23.561 136.786 25.2838 138.057 26.7335C138.131 26.8178 138.226 26.9113 138.309 26.9041C138.387 26.8971 138.408 26.7954 138.379 26.7005C138.348 26.6055 138.281 26.5169 138.216 26.4332C137.052 24.9285 135.887 23.4241 134.723 21.9191C134.665 21.843 134.602 21.7639 134.526 21.7175C134.175 21.5069 134.387 21.9887 134.528 22.1422L134.528 22.1419Z" fill="white"/>
<path opacity="0.46" d="M133.775 21.2324C133.709 21.1994 133.678 21.131 133.648 21.0667C133.433 20.6115 133.109 20.2194 132.7 19.9181C132.609 19.8511 132.511 19.7863 132.456 19.6895C132.4 19.5926 132.395 19.4536 132.481 19.3413C132.607 19.3272 132.681 19.4256 132.739 19.5131C133.088 20.0337 133.549 20.4671 133.986 20.9185C134.107 21.0437 134.001 21.3461 133.775 21.2325L133.775 21.2324Z" fill="white"/>
<path d="M102.84 68.7773H103.754V68.3086C103.754 67.7852 103.809 67.3945 103.918 67.1367C104.031 66.8789 104.236 66.6699 104.533 66.5098C104.834 66.3457 105.213 66.2637 105.67 66.2637C106.139 66.2637 106.598 66.334 107.047 66.4746L106.824 67.623C106.563 67.5605 106.311 67.5293 106.068 67.5293C105.83 67.5293 105.658 67.5859 105.553 67.6992C105.451 67.8086 105.4 68.0215 105.4 68.3379V68.7773H106.631V70.0723H105.4V75H103.754V70.0723H102.84V68.7773ZM109.133 75H107.486V68.7773H109.016V69.6621C109.277 69.2441 109.512 68.9688 109.719 68.8359C109.93 68.7031 110.168 68.6367 110.434 68.6367C110.809 68.6367 111.17 68.7402 111.518 68.9473L111.008 70.3828C110.731 70.2031 110.473 70.1133 110.234 70.1133C110.004 70.1133 109.809 70.1777 109.648 70.3066C109.488 70.4316 109.361 70.6602 109.268 70.9922C109.178 71.3242 109.133 72.0195 109.133 73.0781V75ZM115.836 73.0195L117.477 73.2949C117.266 73.8965 116.932 74.3555 116.475 74.6719C116.022 74.9844 115.453 75.1406 114.77 75.1406C113.688 75.1406 112.887 74.7871 112.367 74.0801C111.957 73.5137 111.752 72.7988 111.752 71.9355C111.752 70.9043 112.022 70.0977 112.561 69.5156C113.1 68.9297 113.781 68.6367 114.606 68.6367C115.531 68.6367 116.262 68.9434 116.797 69.5566C117.332 70.166 117.588 71.1016 117.565 72.3633H113.44C113.451 72.8516 113.584 73.2324 113.838 73.5059C114.092 73.7754 114.408 73.9102 114.787 73.9102C115.045 73.9102 115.262 73.8398 115.438 73.6992C115.613 73.5586 115.746 73.332 115.836 73.0195ZM115.93 71.3555C115.918 70.8789 115.795 70.5176 115.561 70.2715C115.326 70.0215 115.041 69.8965 114.705 69.8965C114.346 69.8965 114.049 70.0273 113.815 70.2891C113.58 70.5508 113.465 70.9062 113.469 71.3555H115.93ZM122.516 73.0195L124.156 73.2949C123.945 73.8965 123.611 74.3555 123.154 74.6719C122.701 74.9844 122.133 75.1406 121.449 75.1406C120.367 75.1406 119.566 74.7871 119.047 74.0801C118.637 73.5137 118.432 72.7988 118.432 71.9355C118.432 70.9043 118.701 70.0977 119.24 69.5156C119.779 68.9297 120.461 68.6367 121.285 68.6367C122.211 68.6367 122.941 68.9434 123.477 69.5566C124.012 70.166 124.268 71.1016 124.244 72.3633H120.119C120.131 72.8516 120.264 73.2324 120.518 73.5059C120.772 73.7754 121.088 73.9102 121.467 73.9102C121.725 73.9102 121.941 73.8398 122.117 73.6992C122.293 73.5586 122.426 73.332 122.516 73.0195ZM122.609 71.3555C122.598 70.8789 122.475 70.5176 122.24 70.2715C122.006 70.0215 121.721 69.8965 121.385 69.8965C121.025 69.8965 120.729 70.0273 120.494 70.2891C120.26 70.5508 120.145 70.9062 120.148 71.3555H122.609ZM134.639 75H133.109V74.0859C132.856 74.4414 132.555 74.707 132.207 74.8828C131.863 75.0547 131.516 75.1406 131.164 75.1406C130.449 75.1406 129.836 74.8535 129.324 74.2793C128.816 73.7012 128.563 72.8965 128.563 71.8652C128.563 70.8105 128.811 70.0098 129.307 69.4629C129.803 68.9121 130.43 68.6367 131.188 68.6367C131.883 68.6367 132.484 68.9258 132.992 69.5039V66.4102H134.639V75ZM130.244 71.7539C130.244 72.418 130.336 72.8984 130.52 73.1953C130.785 73.625 131.156 73.8398 131.633 73.8398C132.012 73.8398 132.334 73.6797 132.6 73.3594C132.865 73.0352 132.998 72.5527 132.998 71.9121C132.998 71.1973 132.869 70.6836 132.611 70.3711C132.354 70.0547 132.023 69.8965 131.621 69.8965C131.231 69.8965 130.902 70.0527 130.637 70.3652C130.375 70.6738 130.244 71.1367 130.244 71.7539ZM139.871 73.0195L141.512 73.2949C141.301 73.8965 140.967 74.3555 140.51 74.6719C140.057 74.9844 139.488 75.1406 138.805 75.1406C137.723 75.1406 136.922 74.7871 136.402 74.0801C135.992 73.5137 135.787 72.7988 135.787 71.9355C135.787 70.9043 136.057 70.0977 136.596 69.5156C137.135 68.9297 137.816 68.6367 138.641 68.6367C139.566 68.6367 140.297 68.9434 140.832 69.5566C141.367 70.166 141.623 71.1016 141.6 72.3633H137.475C137.486 72.8516 137.619 73.2324 137.873 73.5059C138.127 73.7754 138.443 73.9102 138.822 73.9102C139.08 73.9102 139.297 73.8398 139.473 73.6992C139.648 73.5586 139.781 73.332 139.871 73.0195ZM139.965 71.3555C139.953 70.8789 139.83 70.5176 139.596 70.2715C139.361 70.0215 139.076 69.8965 138.74 69.8965C138.381 69.8965 138.084 70.0273 137.85 70.2891C137.615 70.5508 137.5 70.9062 137.504 71.3555H139.965ZM142.947 75V66.4102H144.594V75H142.947ZM146.287 67.9336V66.4102H147.934V67.9336H146.287ZM146.287 75V68.7773H147.934V75H146.287ZM151.338 75L148.83 68.7773H150.559L151.731 71.9531L152.07 73.0137C152.16 72.7441 152.217 72.5664 152.24 72.4805C152.295 72.3047 152.354 72.1289 152.416 71.9531L153.6 68.7773H155.293L152.82 75H151.338ZM159.91 73.0195L161.551 73.2949C161.34 73.8965 161.006 74.3555 160.549 74.6719C160.096 74.9844 159.527 75.1406 158.844 75.1406C157.762 75.1406 156.961 74.7871 156.441 74.0801C156.031 73.5137 155.826 72.7988 155.826 71.9355C155.826 70.9043 156.096 70.0977 156.635 69.5156C157.174 68.9297 157.856 68.6367 158.68 68.6367C159.606 68.6367 160.336 68.9434 160.871 69.5566C161.406 70.166 161.662 71.1016 161.639 72.3633H157.514C157.525 72.8516 157.658 73.2324 157.912 73.5059C158.166 73.7754 158.482 73.9102 158.861 73.9102C159.119 73.9102 159.336 73.8398 159.512 73.6992C159.688 73.5586 159.82 73.332 159.91 73.0195ZM160.004 71.3555C159.992 70.8789 159.869 70.5176 159.635 70.2715C159.4 70.0215 159.115 69.8965 158.779 69.8965C158.42 69.8965 158.123 70.0273 157.889 70.2891C157.654 70.5508 157.539 70.9062 157.543 71.3555H160.004ZM164.563 75H162.916V68.7773H164.445V69.6621C164.707 69.2441 164.941 68.9688 165.148 68.8359C165.359 68.7031 165.598 68.6367 165.863 68.6367C166.238 68.6367 166.6 68.7402 166.947 68.9473L166.438 70.3828C166.16 70.2031 165.902 70.1133 165.664 70.1133C165.434 70.1133 165.238 70.1777 165.078 70.3066C164.918 70.4316 164.791 70.6602 164.697 70.9922C164.607 71.3242 164.563 72.0195 164.563 73.0781V75ZM167.662 67.9336V66.4102H169.309V67.9336H167.662ZM167.662 75V68.7773H169.309V75H167.662ZM174.606 73.0195L176.246 73.2949C176.035 73.8965 175.701 74.3555 175.244 74.6719C174.791 74.9844 174.223 75.1406 173.539 75.1406C172.457 75.1406 171.656 74.7871 171.137 74.0801C170.727 73.5137 170.522 72.7988 170.522 71.9355C170.522 70.9043 170.791 70.0977 171.33 69.5156C171.869 68.9297 172.551 68.6367 173.375 68.6367C174.301 68.6367 175.031 68.9434 175.566 69.5566C176.102 70.166 176.357 71.1016 176.334 72.3633H172.209C172.221 72.8516 172.354 73.2324 172.607 73.5059C172.861 73.7754 173.178 73.9102 173.557 73.9102C173.815 73.9102 174.031 73.8398 174.207 73.6992C174.383 73.5586 174.516 73.332 174.606 73.0195ZM174.699 71.3555C174.688 70.8789 174.565 70.5176 174.33 70.2715C174.096 70.0215 173.811 69.8965 173.475 69.8965C173.115 69.8965 172.818 70.0273 172.584 70.2891C172.35 70.5508 172.234 70.9062 172.238 71.3555H174.699ZM177.102 73.2246L178.754 72.9727C178.824 73.293 178.967 73.5371 179.182 73.7051C179.397 73.8691 179.697 73.9512 180.084 73.9512C180.51 73.9512 180.83 73.873 181.045 73.7168C181.19 73.6074 181.262 73.4609 181.262 73.2773C181.262 73.1523 181.223 73.0488 181.145 72.9668C181.063 72.8887 180.879 72.8164 180.594 72.75C179.266 72.457 178.424 72.1895 178.068 71.9473C177.576 71.6113 177.33 71.1445 177.33 70.5469C177.33 70.0078 177.543 69.5547 177.969 69.1875C178.395 68.8203 179.055 68.6367 179.949 68.6367C180.801 68.6367 181.434 68.7754 181.848 69.0527C182.262 69.3301 182.547 69.7402 182.703 70.2832L181.15 70.5703C181.084 70.3281 180.957 70.1426 180.77 70.0137C180.586 69.8848 180.322 69.8203 179.979 69.8203C179.545 69.8203 179.234 69.8809 179.047 70.002C178.922 70.0879 178.859 70.1992 178.859 70.3359C178.859 70.4531 178.914 70.5527 179.023 70.6348C179.172 70.7441 179.684 70.8984 180.559 71.0977C181.438 71.2969 182.051 71.541 182.398 71.8301C182.742 72.123 182.914 72.5312 182.914 73.0547C182.914 73.625 182.676 74.1152 182.199 74.5254C181.723 74.9355 181.018 75.1406 180.084 75.1406C179.236 75.1406 178.565 74.9688 178.068 74.625C177.576 74.2812 177.254 73.8145 177.102 73.2246ZM187.32 71.8008C187.32 71.2539 187.455 70.7246 187.725 70.2129C187.994 69.7012 188.375 69.3105 188.867 69.041C189.363 68.7715 189.916 68.6367 190.525 68.6367C191.467 68.6367 192.238 68.9434 192.84 69.5566C193.441 70.166 193.742 70.9375 193.742 71.8711C193.742 72.8125 193.438 73.5938 192.828 74.2148C192.223 74.832 191.459 75.1406 190.537 75.1406C189.967 75.1406 189.422 75.0117 188.902 74.7539C188.387 74.4961 187.994 74.1191 187.725 73.623C187.455 73.123 187.32 72.5156 187.32 71.8008ZM189.008 71.8887C189.008 72.5059 189.154 72.9785 189.447 73.3066C189.74 73.6348 190.102 73.7988 190.531 73.7988C190.961 73.7988 191.32 73.6348 191.609 73.3066C191.902 72.9785 192.049 72.502 192.049 71.877C192.049 71.2676 191.902 70.7988 191.609 70.4707C191.32 70.1426 190.961 69.9785 190.531 69.9785C190.102 69.9785 189.74 70.1426 189.447 70.4707C189.154 70.7988 189.008 71.2715 189.008 71.8887ZM200.697 75H199.051V71.8242C199.051 71.1523 199.016 70.7188 198.945 70.5234C198.875 70.3242 198.76 70.1699 198.6 70.0605C198.443 69.9512 198.254 69.8965 198.031 69.8965C197.746 69.8965 197.49 69.9746 197.264 70.1309C197.037 70.2871 196.881 70.4941 196.795 70.752C196.713 71.0098 196.672 71.4863 196.672 72.1816V75H195.025V68.7773H196.555V69.6914C197.098 68.9883 197.781 68.6367 198.606 68.6367C198.969 68.6367 199.301 68.7031 199.602 68.8359C199.902 68.9648 200.129 69.1309 200.281 69.334C200.438 69.5371 200.545 69.7676 200.604 70.0254C200.666 70.2832 200.697 70.6523 200.697 71.1328V75ZM206.943 70.6758L205.449 70.4062C205.617 69.8047 205.906 69.3594 206.316 69.0703C206.727 68.7812 207.336 68.6367 208.145 68.6367C208.879 68.6367 209.426 68.7246 209.785 68.9004C210.145 69.0723 210.397 69.293 210.541 69.5625C210.69 69.8281 210.764 70.3184 210.764 71.0332L210.746 72.9551C210.746 73.502 210.772 73.9062 210.822 74.168C210.877 74.4258 210.977 74.7031 211.121 75H209.492C209.449 74.8906 209.397 74.7285 209.334 74.5137C209.307 74.416 209.287 74.3516 209.275 74.3203C208.994 74.5938 208.693 74.7988 208.373 74.9355C208.053 75.0723 207.711 75.1406 207.348 75.1406C206.707 75.1406 206.201 74.9668 205.83 74.6191C205.463 74.2715 205.279 73.832 205.279 73.3008C205.279 72.9492 205.363 72.6367 205.531 72.3633C205.699 72.0859 205.934 71.875 206.234 71.7305C206.539 71.582 206.977 71.4531 207.547 71.3438C208.316 71.1992 208.85 71.0645 209.147 70.9395V70.7754C209.147 70.459 209.068 70.2344 208.912 70.1016C208.756 69.9648 208.461 69.8965 208.027 69.8965C207.734 69.8965 207.506 69.9551 207.342 70.0723C207.178 70.1855 207.045 70.3867 206.943 70.6758ZM209.147 72.0117C208.936 72.082 208.602 72.166 208.145 72.2637C207.688 72.3613 207.389 72.457 207.248 72.5508C207.033 72.7031 206.926 72.8965 206.926 73.1309C206.926 73.3613 207.012 73.5605 207.184 73.7285C207.356 73.8965 207.574 73.9805 207.84 73.9805C208.137 73.9805 208.42 73.8828 208.69 73.6875C208.889 73.5391 209.02 73.3574 209.082 73.1426C209.125 73.002 209.147 72.7344 209.147 72.3398V72.0117ZM212.393 75V66.4102H214.039V75H212.393ZM215.732 75V66.4102H217.379V75H215.732ZM221.633 68.7773H223.385L224.873 73.1953L226.326 68.7773H228.031L225.834 74.7656L225.441 75.8496C225.297 76.2129 225.158 76.4902 225.025 76.6816C224.897 76.873 224.746 77.0273 224.574 77.1445C224.406 77.2656 224.197 77.3594 223.947 77.4258C223.701 77.4922 223.422 77.5254 223.109 77.5254C222.793 77.5254 222.482 77.4922 222.178 77.4258L222.031 76.1367C222.289 76.1875 222.522 76.2129 222.729 76.2129C223.111 76.2129 223.395 76.0996 223.578 75.873C223.762 75.6504 223.902 75.3652 224 75.0176L221.633 68.7773ZM228.711 71.8008C228.711 71.2539 228.846 70.7246 229.115 70.2129C229.385 69.7012 229.766 69.3105 230.258 69.041C230.754 68.7715 231.307 68.6367 231.916 68.6367C232.857 68.6367 233.629 68.9434 234.231 69.5566C234.832 70.166 235.133 70.9375 235.133 71.8711C235.133 72.8125 234.828 73.5938 234.219 74.2148C233.613 74.832 232.85 75.1406 231.928 75.1406C231.357 75.1406 230.813 75.0117 230.293 74.7539C229.777 74.4961 229.385 74.1191 229.115 73.623C228.846 73.123 228.711 72.5156 228.711 71.8008ZM230.398 71.8887C230.398 72.5059 230.545 72.9785 230.838 73.3066C231.131 73.6348 231.492 73.7988 231.922 73.7988C232.352 73.7988 232.711 73.6348 233 73.3066C233.293 72.9785 233.44 72.502 233.44 71.877C233.44 71.2676 233.293 70.7988 233 70.4707C232.711 70.1426 232.352 69.9785 231.922 69.9785C231.492 69.9785 231.131 70.1426 230.838 70.4707C230.545 70.7988 230.398 71.2715 230.398 71.8887ZM240.523 75V74.0684C240.297 74.4004 239.998 74.6621 239.627 74.8535C239.26 75.0449 238.871 75.1406 238.461 75.1406C238.043 75.1406 237.668 75.0488 237.336 74.8652C237.004 74.6816 236.764 74.4238 236.615 74.0918C236.467 73.7598 236.393 73.3008 236.393 72.7148V68.7773H238.039V71.6367C238.039 72.5117 238.068 73.0488 238.127 73.248C238.19 73.4434 238.301 73.5996 238.461 73.7168C238.621 73.8301 238.824 73.8867 239.07 73.8867C239.352 73.8867 239.604 73.8105 239.826 73.6582C240.049 73.502 240.201 73.3105 240.283 73.084C240.365 72.8535 240.406 72.293 240.406 71.4023V68.7773H242.053V75H240.523ZM245.34 75H243.693V68.7773H245.223V69.6621C245.484 69.2441 245.719 68.9688 245.926 68.8359C246.137 68.7031 246.375 68.6367 246.641 68.6367C247.016 68.6367 247.377 68.7402 247.725 68.9473L247.215 70.3828C246.938 70.2031 246.68 70.1133 246.441 70.1133C246.211 70.1133 246.016 70.1777 245.856 70.3066C245.695 70.4316 245.568 70.6602 245.475 70.9922C245.385 71.3242 245.34 72.0195 245.34 73.0781V75ZM251.398 71.8008C251.398 71.2539 251.533 70.7246 251.803 70.2129C252.072 69.7012 252.453 69.3105 252.945 69.041C253.441 68.7715 253.994 68.6367 254.604 68.6367C255.545 68.6367 256.316 68.9434 256.918 69.5566C257.52 70.166 257.82 70.9375 257.82 71.8711C257.82 72.8125 257.516 73.5938 256.906 74.2148C256.301 74.832 255.537 75.1406 254.615 75.1406C254.045 75.1406 253.5 75.0117 252.981 74.7539C252.465 74.4961 252.072 74.1191 251.803 73.623C251.533 73.123 251.398 72.5156 251.398 71.8008ZM253.086 71.8887C253.086 72.5059 253.232 72.9785 253.525 73.3066C253.818 73.6348 254.18 73.7988 254.609 73.7988C255.039 73.7988 255.398 73.6348 255.688 73.3066C255.981 72.9785 256.127 72.502 256.127 71.877C256.127 71.2676 255.981 70.7988 255.688 70.4707C255.398 70.1426 255.039 69.9785 254.609 69.9785C254.18 69.9785 253.818 70.1426 253.525 70.4707C253.232 70.7988 253.086 71.2715 253.086 71.8887ZM260.691 75H259.045V68.7773H260.574V69.6621C260.836 69.2441 261.07 68.9688 261.277 68.8359C261.488 68.7031 261.727 68.6367 261.992 68.6367C262.367 68.6367 262.729 68.7402 263.076 68.9473L262.566 70.3828C262.289 70.2031 262.031 70.1133 261.793 70.1133C261.563 70.1133 261.367 70.1777 261.207 70.3066C261.047 70.4316 260.92 70.6602 260.826 70.9922C260.736 71.3242 260.691 72.0195 260.691 73.0781V75ZM269.498 75H267.969V74.0859C267.715 74.4414 267.414 74.707 267.066 74.8828C266.723 75.0547 266.375 75.1406 266.023 75.1406C265.309 75.1406 264.695 74.8535 264.184 74.2793C263.676 73.7012 263.422 72.8965 263.422 71.8652C263.422 70.8105 263.67 70.0098 264.166 69.4629C264.662 68.9121 265.289 68.6367 266.047 68.6367C266.742 68.6367 267.344 68.9258 267.852 69.5039V66.4102H269.498V75ZM265.104 71.7539C265.104 72.418 265.195 72.8984 265.379 73.1953C265.645 73.625 266.016 73.8398 266.492 73.8398C266.871 73.8398 267.193 73.6797 267.459 73.3594C267.725 73.0352 267.857 72.5527 267.857 71.9121C267.857 71.1973 267.729 70.6836 267.471 70.3711C267.213 70.0547 266.883 69.8965 266.481 69.8965C266.09 69.8965 265.762 70.0527 265.496 70.3652C265.234 70.6738 265.104 71.1367 265.104 71.7539ZM274.731 73.0195L276.371 73.2949C276.16 73.8965 275.826 74.3555 275.369 74.6719C274.916 74.9844 274.348 75.1406 273.664 75.1406C272.582 75.1406 271.781 74.7871 271.262 74.0801C270.852 73.5137 270.647 72.7988 270.647 71.9355C270.647 70.9043 270.916 70.0977 271.455 69.5156C271.994 68.9297 272.676 68.6367 273.5 68.6367C274.426 68.6367 275.156 68.9434 275.691 69.5566C276.227 70.166 276.482 71.1016 276.459 72.3633H272.334C272.346 72.8516 272.479 73.2324 272.732 73.5059C272.986 73.7754 273.303 73.9102 273.682 73.9102C273.94 73.9102 274.156 73.8398 274.332 73.6992C274.508 73.5586 274.641 73.332 274.731 73.0195ZM274.824 71.3555C274.813 70.8789 274.69 70.5176 274.455 70.2715C274.221 70.0215 273.936 69.8965 273.6 69.8965C273.24 69.8965 272.943 70.0273 272.709 70.2891C272.475 70.5508 272.359 70.9062 272.363 71.3555H274.824ZM279.383 75H277.736V68.7773H279.266V69.6621C279.527 69.2441 279.762 68.9688 279.969 68.8359C280.18 68.7031 280.418 68.6367 280.684 68.6367C281.059 68.6367 281.42 68.7402 281.768 68.9473L281.258 70.3828C280.981 70.2031 280.723 70.1133 280.484 70.1133C280.254 70.1133 280.059 70.1777 279.898 70.3066C279.738 70.4316 279.611 70.6602 279.518 70.9922C279.428 71.3242 279.383 72.0195 279.383 73.0781V75ZM281.902 73.2246L283.555 72.9727C283.625 73.293 283.768 73.5371 283.982 73.7051C284.197 73.8691 284.498 73.9512 284.885 73.9512C285.311 73.9512 285.631 73.873 285.846 73.7168C285.99 73.6074 286.063 73.4609 286.063 73.2773C286.063 73.1523 286.023 73.0488 285.945 72.9668C285.863 72.8887 285.68 72.8164 285.395 72.75C284.066 72.457 283.225 72.1895 282.869 71.9473C282.377 71.6113 282.131 71.1445 282.131 70.5469C282.131 70.0078 282.344 69.5547 282.77 69.1875C283.195 68.8203 283.856 68.6367 284.75 68.6367C285.602 68.6367 286.234 68.7754 286.648 69.0527C287.063 69.3301 287.348 69.7402 287.504 70.2832L285.951 70.5703C285.885 70.3281 285.758 70.1426 285.57 70.0137C285.387 69.8848 285.123 69.8203 284.779 69.8203C284.346 69.8203 284.035 69.8809 283.848 70.002C283.723 70.0879 283.66 70.1992 283.66 70.3359C283.66 70.4531 283.715 70.5527 283.824 70.6348C283.973 70.7441 284.484 70.8984 285.359 71.0977C286.238 71.2969 286.852 71.541 287.199 71.8301C287.543 72.123 287.715 72.5312 287.715 73.0547C287.715 73.625 287.477 74.1152 287 74.5254C286.523 74.9355 285.818 75.1406 284.885 75.1406C284.037 75.1406 283.365 74.9688 282.869 74.625C282.377 74.2812 282.055 73.8145 281.902 73.2246Z" fill="#595959"/>
<path d="M92.1919 48.0947C92.1173 48.0947 92.0558 48.0814 92.0558 48.0632V48.0316C92.0558 48.015 92.1173 48 92.1919 48C92.2666 48 92.3281 48.0133 92.3281 48.0316V48.0632C92.3281 48.0798 92.2666 48.0947 92.1919 48.0947Z" fill="#612E96"/>
<path d="M92.1919 48.339C92.1173 48.339 92.0558 48.3258 92.0558 48.3075V48.246C92.0558 48.2294 92.1173 48.2144 92.1919 48.2144C92.2666 48.2144 92.3281 48.2277 92.3281 48.246V48.3075C92.3281 48.3241 92.2666 48.339 92.1919 48.339Z" fill="#612E96"/>
<path d="M92.1919 61.5569C92.1173 61.5569 92.0558 61.5436 92.0558 61.5254V61.4639C92.0558 61.4472 92.1173 61.4323 92.1919 61.4323C92.2666 61.4323 92.3281 61.4456 92.3281 61.4639V61.5254C92.3281 61.542 92.2666 61.5569 92.1919 61.5569ZM92.1919 61.3126C92.1173 61.3126 92.0558 61.2993 92.0558 61.281V61.2195C92.0558 61.2029 92.1173 61.188 92.1919 61.188C92.2666 61.188 92.3281 61.2013 92.3281 61.2195V61.281C92.3281 61.2977 92.2666 61.3126 92.1919 61.3126ZM92.1919 61.0683C92.1173 61.0683 92.0558 61.055 92.0558 61.0367V60.9752C92.0558 60.9586 92.1173 60.9437 92.1919 60.9437C92.2666 60.9437 92.3281 60.9569 92.3281 60.9752V61.0367C92.3281 61.0533 92.2666 61.0683 92.1919 61.0683ZM92.1919 60.824C92.1173 60.824 92.0558 60.8107 92.0558 60.7924V60.7309C92.0558 60.7143 92.1173 60.6993 92.1919 60.6993C92.2666 60.6993 92.3281 60.7126 92.3281 60.7309V60.7924C92.3281 60.809 92.2666 60.824 92.1919 60.824ZM92.1919 60.5797C92.1173 60.5797 92.0558 60.5664 92.0558 60.5481V60.4866C92.0558 60.47 92.1173 60.455 92.1919 60.455C92.2666 60.455 92.3281 60.4683 92.3281 60.4866V60.5481C92.3281 60.5647 92.2666 60.5797 92.1919 60.5797ZM92.1919 60.3354C92.1173 60.3354 92.0558 60.3221 92.0558 60.3038V60.2423C92.0558 60.2257 92.1173 60.2107 92.1919 60.2107C92.2666 60.2107 92.3281 60.224 92.3281 60.2423V60.3038C92.3281 60.3204 92.2666 60.3354 92.1919 60.3354ZM92.1919 60.091C92.1173 60.091 92.0558 60.0777 92.0558 60.0595V59.998C92.0558 59.9814 92.1173 59.9664 92.1919 59.9664C92.2666 59.9664 92.3281 59.9797 92.3281 59.998V60.0595C92.3281 60.0761 92.2666 60.091 92.1919 60.091ZM92.1919 59.8467C92.1173 59.8467 92.0558 59.8334 92.0558 59.8152V59.7537C92.0558 59.737 92.1173 59.7221 92.1919 59.7221C92.2666 59.7221 92.3281 59.7354 92.3281 59.7537V59.8152C92.3281 59.8318 92.2666 59.8467 92.1919 59.8467ZM92.1919 59.6024C92.1173 59.6024 92.0558 59.5891 92.0558 59.5708V59.5093C92.0558 59.4927 92.1173 59.4778 92.1919 59.4778C92.2666 59.4778 92.3281 59.4911 92.3281 59.5093V59.5708C92.3281 59.5875 92.2666 59.6024 92.1919 59.6024ZM92.1919 59.3581C92.1173 59.3581 92.0558 59.3448 92.0558 59.3265V59.265C92.0558 59.2484 92.1173 59.2335 92.1919 59.2335C92.2666 59.2335 92.3281 59.2467 92.3281 59.265V59.3265C92.3281 59.3432 92.2666 59.3581 92.1919 59.3581ZM92.1919 59.1138C92.1173 59.1138 92.0558 59.1005 92.0558 59.0822V59.0207C92.0558 59.0041 92.1173 58.9891 92.1919 58.9891C92.2666 58.9891 92.3281 59.0024 92.3281 59.0207V59.0822C92.3281 59.0988 92.2666 59.1138 92.1919 59.1138ZM92.1919 58.8695C92.1173 58.8695 92.0558 58.8562 92.0558 58.8379V58.7764C92.0558 58.7598 92.1173 58.7448 92.1919 58.7448C92.2666 58.7448 92.3281 58.7581 92.3281 58.7764V58.8379C92.3281 58.8545 92.2666 58.8695 92.1919 58.8695ZM92.1919 58.6252C92.1173 58.6252 92.0558 58.6119 92.0558 58.5936V58.5321C92.0558 58.5155 92.1173 58.5005 92.1919 58.5005C92.2666 58.5005 92.3281 58.5138 92.3281 58.5321V58.5936C92.3281 58.6102 92.2666 58.6252 92.1919 58.6252ZM92.1919 58.3809C92.1173 58.3809 92.0558 58.3676 92.0558 58.3493V58.2878C92.0558 58.2712 92.1173 58.2562 92.1919 58.2562C92.2666 58.2562 92.3281 58.2695 92.3281 58.2878V58.3493C92.3281 58.3659 92.2666 58.3809 92.1919 58.3809ZM92.1919 58.1365C92.1173 58.1365 92.0558 58.1232 92.0558 58.105V58.0435C92.0558 58.0268 92.1173 58.0119 92.1919 58.0119C92.2666 58.0119 92.3281 58.0252 92.3281 58.0435V58.105C92.3281 58.1216 92.2666 58.1365 92.1919 58.1365ZM92.1919 57.8922C92.1173 57.8922 92.0558 57.8789 92.0558 57.8606V57.7991C92.0558 57.7825 92.1173 57.7676 92.1919 57.7676C92.2666 57.7676 92.3281 57.7809 92.3281 57.7991V57.8606C92.3281 57.8773 92.2666 57.8922 92.1919 57.8922ZM92.1919 57.6479C92.1173 57.6479 92.0558 57.6346 92.0558 57.6163V57.5548C92.0558 57.5382 92.1173 57.5233 92.1919 57.5233C92.2666 57.5233 92.3281 57.5366 92.3281 57.5548V57.6163C92.3281 57.6329 92.2666 57.6479 92.1919 57.6479ZM92.1919 57.4036C92.1173 57.4036 92.0558 57.3903 92.0558 57.372V57.3105C92.0558 57.2939 92.1173 57.2789 92.1919 57.2789C92.2666 57.2789 92.3281 57.2922 92.3281 57.3105V57.372C92.3281 57.3886 92.2666 57.4036 92.1919 57.4036ZM92.1919 57.1593C92.1173 57.1593 92.0558 57.146 92.0558 57.1277V57.0662C92.0558 57.0496 92.1173 57.0346 92.1919 57.0346C92.2666 57.0346 92.3281 57.0479 92.3281 57.0662V57.1277C92.3281 57.1443 92.2666 57.1593 92.1919 57.1593ZM92.1919 56.915C92.1173 56.915 92.0558 56.9017 92.0558 56.8834V56.8219C92.0558 56.8053 92.1173 56.7903 92.1919 56.7903C92.2666 56.7903 92.3281 56.8036 92.3281 56.8219V56.8834C92.3281 56.9 92.2666 56.915 92.1919 56.915ZM92.1919 56.6707C92.1173 56.6707 92.0558 56.6574 92.0558 56.6391V56.5776C92.0558 56.561 92.1173 56.546 92.1919 56.546C92.2666 56.546 92.3281 56.5593 92.3281 56.5776V56.6391C92.3281 56.6557 92.2666 56.6707 92.1919 56.6707ZM92.1919 56.4263C92.1173 56.4263 92.0558 56.413 92.0558 56.3948V56.3333C92.0558 56.3166 92.1173 56.3017 92.1919 56.3017C92.2666 56.3017 92.3281 56.315 92.3281 56.3333V56.3948C92.3281 56.4114 92.2666 56.4263 92.1919 56.4263ZM92.1919 56.182C92.1173 56.182 92.0558 56.1687 92.0558 56.1504V56.089C92.0558 56.0723 92.1173 56.0574 92.1919 56.0574C92.2666 56.0574 92.3281 56.0707 92.3281 56.089V56.1504C92.3281 56.1671 92.2666 56.182 92.1919 56.182ZM92.1919 55.9377C92.1173 55.9377 92.0558 55.9244 92.0558 55.9061V55.8446C92.0558 55.828 92.1173 55.8131 92.1919 55.8131C92.2666 55.8131 92.3281 55.8264 92.3281 55.8446V55.9061C92.3281 55.9227 92.2666 55.9377 92.1919 55.9377ZM92.1919 55.6934C92.1173 55.6934 92.0558 55.6801 92.0558 55.6618V55.6003C92.0558 55.5837 92.1173 55.5687 92.1919 55.5687C92.2666 55.5687 92.3281 55.582 92.3281 55.6003V55.6618C92.3281 55.6784 92.2666 55.6934 92.1919 55.6934ZM92.1919 55.4491C92.1173 55.4491 92.0558 55.4358 92.0558 55.4175V55.356C92.0558 55.3394 92.1173 55.3244 92.1919 55.3244C92.2666 55.3244 92.3281 55.3377 92.3281 55.356V55.4175C92.3281 55.4341 92.2666 55.4491 92.1919 55.4491ZM92.1919 55.2048C92.1173 55.2048 92.0558 55.1915 92.0558 55.1732V55.1117C92.0558 55.0951 92.1173 55.0801 92.1919 55.0801C92.2666 55.0801 92.3281 55.0934 92.3281 55.1117V55.1732C92.3281 55.1898 92.2666 55.2048 92.1919 55.2048ZM92.1919 54.9605C92.1173 54.9605 92.0558 54.9472 92.0558 54.9289V54.8674C92.0558 54.8508 92.1173 54.8358 92.1919 54.8358C92.2666 54.8358 92.3281 54.8491 92.3281 54.8674V54.9289C92.3281 54.9455 92.2666 54.9605 92.1919 54.9605ZM92.1919 54.7161C92.1173 54.7161 92.0558 54.7028 92.0558 54.6846V54.6231C92.0558 54.6064 92.1173 54.5915 92.1919 54.5915C92.2666 54.5915 92.3281 54.6048 92.3281 54.6231V54.6846C92.3281 54.7012 92.2666 54.7161 92.1919 54.7161ZM92.1919 54.4718C92.1173 54.4718 92.0558 54.4585 92.0558 54.4402V54.3788C92.0558 54.3621 92.1173 54.3472 92.1919 54.3472C92.2666 54.3472 92.3281 54.3605 92.3281 54.3788V54.4402C92.3281 54.4569 92.2666 54.4718 92.1919 54.4718ZM92.1919 54.2275C92.1173 54.2275 92.0558 54.2142 92.0558 54.1959V54.1344C92.0558 54.1178 92.1173 54.1029 92.1919 54.1029C92.2666 54.1029 92.3281 54.1162 92.3281 54.1344V54.1959C92.3281 54.2126 92.2666 54.2275 92.1919 54.2275ZM92.1919 53.9832C92.1173 53.9832 92.0558 53.9699 92.0558 53.9516V53.8901C92.0558 53.8735 92.1173 53.8585 92.1919 53.8585C92.2666 53.8585 92.3281 53.8718 92.3281 53.8901V53.9516C92.3281 53.9682 92.2666 53.9832 92.1919 53.9832ZM92.1919 53.7389C92.1173 53.7389 92.0558 53.7256 92.0558 53.7073V53.6458C92.0558 53.6292 92.1173 53.6142 92.1919 53.6142C92.2666 53.6142 92.3281 53.6275 92.3281 53.6458V53.7073C92.3281 53.7239 92.2666 53.7389 92.1919 53.7389ZM92.1919 53.4946C92.1173 53.4946 92.0558 53.4813 92.0558 53.463V53.4015C92.0558 53.3849 92.1173 53.3699 92.1919 53.3699C92.2666 53.3699 92.3281 53.3832 92.3281 53.4015V53.463C92.3281 53.4796 92.2666 53.4946 92.1919 53.4946ZM92.1919 53.2503C92.1173 53.2503 92.0558 53.237 92.0558 53.2187V53.1572C92.0558 53.1406 92.1173 53.1256 92.1919 53.1256C92.2666 53.1256 92.3281 53.1389 92.3281 53.1572V53.2187C92.3281 53.2353 92.2666 53.2503 92.1919 53.2503ZM92.1919 53.0059C92.1173 53.0059 92.0558 52.9926 92.0558 52.9744V52.9129C92.0558 52.8962 92.1173 52.8813 92.1919 52.8813C92.2666 52.8813 92.3281 52.8946 92.3281 52.9129V52.9744C92.3281 52.991 92.2666 53.0059 92.1919 53.0059ZM92.1919 52.7616C92.1173 52.7616 92.0558 52.7483 92.0558 52.73V52.6686C92.0558 52.6519 92.1173 52.637 92.1919 52.637C92.2666 52.637 92.3281 52.6503 92.3281 52.6686V52.73C92.3281 52.7467 92.2666 52.7616 92.1919 52.7616ZM92.1919 52.5173C92.1173 52.5173 92.0558 52.504 92.0558 52.4857V52.4242C92.0558 52.4076 92.1173 52.3927 92.1919 52.3927C92.2666 52.3927 92.3281 52.406 92.3281 52.4242V52.4857C92.3281 52.5024 92.2666 52.5173 92.1919 52.5173ZM92.1919 52.273C92.1173 52.273 92.0558 52.2597 92.0558 52.2414V52.1799C92.0558 52.1633 92.1173 52.1483 92.1919 52.1483C92.2666 52.1483 92.3281 52.1616 92.3281 52.1799V52.2414C92.3281 52.258 92.2666 52.273 92.1919 52.273ZM92.1919 52.0287C92.1173 52.0287 92.0558 52.0154 92.0558 51.9971V51.9356C92.0558 51.919 92.1173 51.904 92.1919 51.904C92.2666 51.904 92.3281 51.9173 92.3281 51.9356V51.9971C92.3281 52.0137 92.2666 52.0287 92.1919 52.0287ZM92.1919 51.7844C92.1173 51.7844 92.0558 51.7711 92.0558 51.7528V51.6913C92.0558 51.6747 92.1173 51.6597 92.1919 51.6597C92.2666 51.6597 92.3281 51.673 92.3281 51.6913V51.7528C92.3281 51.7694 92.2666 51.7844 92.1919 51.7844ZM92.1919 51.5401C92.1173 51.5401 92.0558 51.5268 92.0558 51.5085V51.447C92.0558 51.4304 92.1173 51.4154 92.1919 51.4154C92.2666 51.4154 92.3281 51.4287 92.3281 51.447V51.5085C92.3281 51.5251 92.2666 51.5401 92.1919 51.5401ZM92.1919 51.2957C92.1173 51.2957 92.0558 51.2824 92.0558 51.2642V51.2027C92.0558 51.186 92.1173 51.1711 92.1919 51.1711C92.2666 51.1711 92.3281 51.1844 92.3281 51.2027V51.2642C92.3281 51.2808 92.2666 51.2957 92.1919 51.2957ZM92.1919 51.0514C92.1173 51.0514 92.0558 51.0381 92.0558 51.0198V50.9584C92.0558 50.9417 92.1173 50.9268 92.1919 50.9268C92.2666 50.9268 92.3281 50.9401 92.3281 50.9584V51.0198C92.3281 51.0365 92.2666 51.0514 92.1919 51.0514ZM92.1919 50.8071C92.1173 50.8071 92.0558 50.7938 92.0558 50.7755V50.714C92.0558 50.6974 92.1173 50.6825 92.1919 50.6825C92.2666 50.6825 92.3281 50.6958 92.3281 50.714V50.7755C92.3281 50.7922 92.2666 50.8071 92.1919 50.8071ZM92.1919 50.5628C92.1173 50.5628 92.0558 50.5495 92.0558 50.5312V50.4697C92.0558 50.4531 92.1173 50.4381 92.1919 50.4381C92.2666 50.4381 92.3281 50.4514 92.3281 50.4697V50.5312C92.3281 50.5478 92.2666 50.5628 92.1919 50.5628ZM92.1919 50.3185C92.1173 50.3185 92.0558 50.3052 92.0558 50.2869V50.2254C92.0558 50.2088 92.1173 50.1938 92.1919 50.1938C92.2666 50.1938 92.3281 50.2071 92.3281 50.2254V50.2869C92.3281 50.3035 92.2666 50.3185 92.1919 50.3185ZM92.1919 50.0742C92.1173 50.0742 92.0558 50.0609 92.0558 50.0426V49.9811C92.0558 49.9645 92.1173 49.9495 92.1919 49.9495C92.2666 49.9495 92.3281 49.9628 92.3281 49.9811V50.0426C92.3281 50.0592 92.2666 50.0742 92.1919 50.0742ZM92.1919 49.8299C92.1173 49.8299 92.0558 49.8166 92.0558 49.7983V49.7368C92.0558 49.7202 92.1173 49.7052 92.1919 49.7052C92.2666 49.7052 92.3281 49.7185 92.3281 49.7368V49.7983C92.3281 49.8149 92.2666 49.8299 92.1919 49.8299ZM92.1919 49.5855C92.1173 49.5855 92.0558 49.5722 92.0558 49.554V49.4925C92.0558 49.4758 92.1173 49.4609 92.1919 49.4609C92.2666 49.4609 92.3281 49.4742 92.3281 49.4925V49.554C92.3281 49.5706 92.2666 49.5855 92.1919 49.5855ZM92.1919 49.3412C92.1173 49.3412 92.0558 49.3279 92.0558 49.3096V49.2482C92.0558 49.2315 92.1173 49.2166 92.1919 49.2166C92.2666 49.2166 92.3281 49.2299 92.3281 49.2482V49.3096C92.3281 49.3263 92.2666 49.3412 92.1919 49.3412ZM92.1919 49.0969C92.1173 49.0969 92.0558 49.0836 92.0558 49.0653V49.0038C92.0558 48.9872 92.1173 48.9723 92.1919 48.9723C92.2666 48.9723 92.3281 48.9856 92.3281 49.0038V49.0653C92.3281 49.082 92.2666 49.0969 92.1919 49.0969ZM92.1919 48.8526C92.1173 48.8526 92.0558 48.8393 92.0558 48.821V48.7595C92.0558 48.7429 92.1173 48.7279 92.1919 48.7279C92.2666 48.7279 92.3281 48.7412 92.3281 48.7595V48.821C92.3281 48.8376 92.2666 48.8526 92.1919 48.8526ZM92.1919 48.6083C92.1173 48.6083 92.0558 48.595 92.0558 48.5767V48.5152C92.0558 48.4986 92.1173 48.4836 92.1919 48.4836C92.2666 48.4836 92.3281 48.4969 92.3281 48.5152V48.5767C92.3281 48.5933 92.2666 48.6083 92.1919 48.6083Z" fill="#612E96"/>
<path d="M92.1919 61.7713C92.1173 61.7713 92.0558 61.7581 92.0558 61.7398V61.7082C92.0558 61.6916 92.1173 61.6766 92.1919 61.6766C92.2666 61.6766 92.3281 61.6899 92.3281 61.7082V61.7398C92.3281 61.7564 92.2666 61.7713 92.1919 61.7713Z" fill="#612E96"/>
<path d="M89.6428 86H89.1313C89.1313 85.3751 88.9666 85.0709 88.791 84.7485C88.6043 84.4061 88.4111 84.0505 88.4111 83.3491C88.4111 82.6477 88.6043 82.2937 88.791 81.9497C88.9666 81.6273 89.1313 81.3231 89.1313 80.6982C89.1313 80.0733 88.9666 79.7692 88.791 79.4467C88.6043 79.1044 88.4111 78.7487 88.4111 78.0473C88.4111 77.346 88.6043 76.992 88.791 76.6479C88.9666 76.3255 89.1313 76.0213 89.1313 75.3964H89.6428C89.6428 76.0978 89.4496 76.4518 89.263 76.7958C89.0874 77.1183 88.9227 77.4224 88.9227 78.0473C88.9227 78.6722 89.0874 78.9764 89.263 79.2988C89.4496 79.6412 89.6428 79.9969 89.6428 80.6982C89.6428 81.3996 89.4496 81.7536 89.263 82.0976C89.0874 82.42 88.9227 82.7242 88.9227 83.3491C88.9227 83.974 89.0874 84.2782 89.263 84.6006C89.4496 84.943 89.6428 85.2986 89.6428 86Z" fill="#612E96"/>
<path d="M90.8899 86H90.3784C90.3784 85.3751 90.2137 85.0709 90.0381 84.7485C89.8514 84.4061 89.6582 84.0505 89.6582 83.3491C89.6582 82.6477 89.8514 82.2937 90.0381 81.9497C90.2137 81.6273 90.3784 81.3231 90.3784 80.6982C90.3784 80.0733 90.2137 79.7692 90.0381 79.4467C89.8514 79.1044 89.6582 78.7487 89.6582 78.0473C89.6582 77.346 89.8514 76.992 90.0381 76.6479C90.2137 76.3255 90.3784 76.0213 90.3784 75.3964H90.8899C90.8899 76.0978 90.6967 76.4518 90.5101 76.7958C90.3345 77.1183 90.1698 77.4224 90.1698 78.0473C90.1698 78.6722 90.3345 78.9764 90.5101 79.2988C90.6967 79.6412 90.8899 79.9969 90.8899 80.6982C90.8899 81.3996 90.6967 81.7536 90.5101 82.0976C90.3345 82.42 90.1698 82.7242 90.1698 83.3491C90.1698 83.974 90.3345 84.2782 90.5101 84.6006C90.6967 84.943 90.8899 85.2986 90.8899 86Z" fill="#D35538"/>
<path d="M92.1349 86H91.6233C91.6233 85.3751 91.4586 85.0709 91.283 84.7485C91.0964 84.4061 90.9031 84.0505 90.9031 83.3491C90.9031 82.6477 91.0964 82.2937 91.283 81.9497C91.4586 81.6273 91.6233 81.3231 91.6233 80.6982C91.6233 80.0733 91.4586 79.7692 91.283 79.4467C91.0964 79.1044 90.9031 78.7487 90.9031 78.0473C90.9031 77.346 91.0964 76.992 91.283 76.6479C91.4586 76.3255 91.6233 76.0213 91.6233 75.3964H92.1349C92.1349 76.0978 91.9417 76.4518 91.755 76.7958C91.5794 77.1183 91.4147 77.4224 91.4147 78.0473C91.4147 78.6722 91.5794 78.9764 91.755 79.2988C91.9417 79.6412 92.1349 79.9969 92.1349 80.6982C92.1349 81.3996 91.9417 81.7536 91.755 82.0976C91.5794 82.42 91.4147 82.7242 91.4147 83.3491C91.4147 83.974 91.5794 84.2782 91.755 84.6006C91.9417 84.943 92.1349 85.2986 92.1349 86Z" fill="#612E96"/>
<path d="M93.3819 86H92.8704C92.8704 85.3751 92.7057 85.0709 92.53 84.7485C92.3434 84.4061 92.1502 84.0505 92.1502 83.3491C92.1502 82.6477 92.3434 82.2937 92.53 81.9497C92.7057 81.6273 92.8704 81.3231 92.8704 80.6982C92.8704 80.0733 92.7057 79.7692 92.53 79.4467C92.3434 79.1044 92.1502 78.7487 92.1502 78.0473C92.1502 77.346 92.3434 76.992 92.53 76.6479C92.7057 76.3255 92.8704 76.0213 92.8704 75.3964H93.3819C93.3819 76.0978 93.1887 76.4518 93.0021 76.7958C92.8265 77.1183 92.6618 77.4224 92.6618 78.0473C92.6618 78.6722 92.8265 78.9764 93.0021 79.2988C93.1887 79.6412 93.3819 79.9969 93.3819 80.6982C93.3819 81.3996 93.1887 81.7536 93.0021 82.0976C92.8265 82.42 92.6618 82.7242 92.6618 83.3491C92.6618 83.974 92.8265 84.2782 93.0021 84.6006C93.1887 84.943 93.3819 85.2986 93.3819 86Z" fill="#D35538"/>
<path d="M94.629 86H94.1175C94.1175 85.3751 93.9528 85.0709 93.7771 84.7485C93.5905 84.4061 93.3973 84.0505 93.3973 83.3491C93.3973 82.6477 93.5905 82.2937 93.7771 81.9497C93.9528 81.6273 94.1175 81.3231 94.1175 80.6982C94.1175 80.0733 93.9528 79.7692 93.7771 79.4467C93.5905 79.1044 93.3973 78.7487 93.3973 78.0473C93.3973 77.346 93.5905 76.992 93.7771 76.6479C93.9528 76.3255 94.1175 76.0213 94.1175 75.3964H94.629C94.629 76.0978 94.4358 76.4518 94.2492 76.7958C94.0736 77.1183 93.9089 77.4224 93.9089 78.0473C93.9089 78.6722 94.0736 78.9764 94.2492 79.2988C94.4358 79.6412 94.629 79.9969 94.629 80.6982C94.629 81.3996 94.4358 81.7536 94.2492 82.0976C94.0736 82.42 93.9089 82.7242 93.9089 83.3491C93.9089 83.974 94.0736 84.2782 94.2492 84.6006C94.4358 84.943 94.629 85.2986 94.629 86Z" fill="#612E96"/>
<path d="M95.874 86H95.3624C95.3624 85.3751 95.1977 85.0709 95.0221 84.7485C94.8354 84.4061 94.6422 84.0505 94.6422 83.3491C94.6422 82.6477 94.8354 82.2937 95.0221 81.9497C95.1977 81.6273 95.3624 81.3231 95.3624 80.6982C95.3624 80.0733 95.1977 79.7692 95.0221 79.4467C94.8354 79.1044 94.6422 78.7487 94.6422 78.0473C94.6422 77.346 94.8354 76.992 95.0221 76.6479C95.1977 76.3255 95.3624 76.0213 95.3624 75.3964H95.874C95.874 76.0978 95.6807 76.4518 95.4941 76.7958C95.3185 77.1183 95.1538 77.4224 95.1538 78.0473C95.1538 78.6722 95.3185 78.9764 95.4941 79.2988C95.6807 79.6412 95.874 79.9969 95.874 80.6982C95.874 81.3996 95.6807 81.7536 95.4941 82.0976C95.3185 82.42 95.1538 82.7242 95.1538 83.3491C95.1538 83.974 95.3185 84.2782 95.4941 84.6006C95.6807 84.943 95.874 85.2986 95.874 86Z" fill="#D35538"/>
<path d="M96.223 65.8166H88.2991V74.0236H96.223V65.8166Z" fill="#612E96"/>
<path d="M96.223 64.4455H88.2991V64.8311H96.223V64.4455Z" fill="#612E96"/>
<path d="M96.223 65.4826H88.2991V65.7302H96.223V65.4826Z" fill="#612E96"/>
<path d="M88.758 64.4472L92.2051 61.8378L92.339 61.7364L92.2051 61.6351L88.488 64.4472H88.758Z" fill="#612E96"/>
<path d="M95.6522 64.4472H95.92L92.339 61.7364L92.2051 61.6351L92.0712 61.7364L92.2051 61.8378L95.6522 64.4472Z" fill="#612E96"/>
<path d="M96.223 64.9591H88.2991V65.3446H96.223V64.9591Z" fill="#D35538"/>
<path d="M96.223 74.1134H88.2991V74.4989H96.223V74.1134Z" fill="#612E96"/>
<path d="M96.223 75.1488H88.2991V75.3964H96.223V75.1488Z" fill="#612E96"/>
<path d="M96.223 74.6253H88.2991V75.0109H96.223V74.6253Z" fill="#D35538"/>
<path d="M84.2153 69.9201L88.2991 74.0253L88.2991 65.8166L84.2153 69.9201Z" fill="#612E96"/>
<path d="M100.256 69.9201L96.1725 74.0253V65.8166L100.256 69.9201Z" fill="#612E96"/>
<path d="M88.2991 65.8166L92.26 69.9201L96.2208 65.8166H88.2969H88.2991ZM89.8075 66.4632H94.7147L92.2622 68.8797L89.8097 66.4632H89.8075ZM90.7626 66.8238H93.7574L92.26 68.2997L90.7626 66.8238Z" fill="#EFB900"/>
<path d="M96.2231 74.0253L92.2622 69.9218L88.3013 74.0253H96.2253H96.2231ZM94.7147 73.3788H89.8075L92.26 70.9622L94.7125 73.3788H94.7147ZM93.8408 73.0596H90.6814L92.26 71.504L93.8386 73.0596H93.8408Z" fill="#EFB900"/>
<path d="M96.2845 72.9117L95.8257 72.3915L96.2845 71.873L96.7434 72.3915L96.2845 72.9117Z" fill="#EFB900"/>
<path d="M96.2845 71.7035L95.8257 71.1833L96.2845 70.6647L96.7434 71.1833L96.2845 71.7035Z" fill="#EFB900"/>
<path d="M96.2845 70.4952L95.8257 69.975L96.2845 69.4564L96.7434 69.975L96.2845 70.4952Z" fill="#EFB900"/>
<path d="M96.2845 69.2869L95.8257 68.7667L96.2845 68.2482L96.7434 68.7667L96.2845 69.2869Z" fill="#EFB900"/>
<path d="M96.2845 68.077L95.8257 67.5584L96.2845 67.0382L96.7434 67.5584L96.2845 68.077Z" fill="#EFB900"/>
<path d="M96.9081 72.2768L96.4492 71.7566L96.9081 71.2381L97.367 71.7566L96.9081 72.2768Z" fill="#EFB900"/>
<path d="M96.9081 71.0686L96.4492 70.5484L96.9081 70.0298L97.367 70.5484L96.9081 71.0686Z" fill="#EFB900"/>
<path d="M96.9081 69.8603L96.4492 69.3401L96.9081 68.8215L97.367 69.3401L96.9081 69.8603Z" fill="#EFB900"/>
<path d="M96.9081 68.652L96.4492 68.1318L96.9081 67.6133L97.367 68.1318L96.9081 68.652Z" fill="#EFB900"/>
<path d="M97.5909 71.5971L97.132 71.0769L97.5909 70.5584L98.0498 71.0769L97.5909 71.5971Z" fill="#EFB900"/>
<path d="M97.5909 70.3888L97.132 69.8686L97.5909 69.3501L98.0498 69.8686L97.5909 70.3888Z" fill="#EFB900"/>
<path d="M97.5909 69.1806L97.132 68.6603L97.5909 68.1418L98.0498 68.6603L97.5909 69.1806Z" fill="#EFB900"/>
<path d="M98.2782 70.9888L97.8193 70.4686L98.2782 69.9501L98.737 70.4686L98.2782 70.9888Z" fill="#EFB900"/>
<path d="M98.2782 69.7805L97.8193 69.2603L98.2782 68.7418L98.737 69.2603L98.2782 69.7805Z" fill="#EFB900"/>
<path d="M98.8995 70.3888L98.4406 69.8686L98.8995 69.3501L99.3584 69.8686L98.8995 70.3888Z" fill="#EFB900"/>
<path d="M95.538 72.2768L95.9969 71.7566L95.538 71.2381L95.0792 71.7566L95.538 72.2768Z" fill="#EFB900"/>
<path d="M95.538 71.0686L95.9969 70.5484L95.538 70.0298L95.0792 70.5484L95.538 71.0686Z" fill="#EFB900"/>
<path d="M95.538 69.8603L95.9969 69.3401L95.538 68.8215L95.0792 69.3401L95.538 69.8603Z" fill="#EFB900"/>
<path d="M95.538 68.652L95.9969 68.1318L95.538 67.6133L95.0792 68.1318L95.538 68.652Z" fill="#EFB900"/>
<path d="M94.8552 71.5971L95.3141 71.0769L94.8552 70.5584L94.3963 71.0769L94.8552 71.5971Z" fill="#EFB900"/>
<path d="M94.8552 70.3888L95.3141 69.8686L94.8552 69.3501L94.3963 69.8686L94.8552 70.3888Z" fill="#EFB900"/>
<path d="M94.8552 69.1806L95.3141 68.6603L94.8552 68.1418L94.3963 68.6603L94.8552 69.1806Z" fill="#EFB900"/>
<path d="M94.168 70.9888L94.6291 70.4686L94.168 69.9501L93.7091 70.4686L94.168 70.9888Z" fill="#EFB900"/>
<path d="M94.168 69.7805L94.6291 69.2603L94.168 68.7418L93.7091 69.2603L94.168 69.7805Z" fill="#EFB900"/>
<path d="M93.5466 70.3888L94.0055 69.8686L93.5466 69.3501L93.0878 69.8686L93.5466 70.3888Z" fill="#EFB900"/>
<path d="M88.3606 72.9117L87.9017 72.3915L88.3606 71.873L88.8195 72.3915L88.3606 72.9117Z" fill="#EFB900"/>
<path d="M88.3606 71.7035L87.9017 71.1833L88.3606 70.6647L88.8195 71.1833L88.3606 71.7035Z" fill="#EFB900"/>
<path d="M88.3606 70.4952L87.9017 69.975L88.3606 69.4564L88.8195 69.975L88.3606 70.4952Z" fill="#EFB900"/>
<path d="M88.3606 69.2869L87.9017 68.7667L88.3606 68.2482L88.8195 68.7667L88.3606 69.2869Z" fill="#EFB900"/>
<path d="M88.3606 68.077L87.9017 67.5584L88.3606 67.0382L88.8195 67.5584L88.3606 68.077Z" fill="#EFB900"/>
<path d="M88.9842 72.2768L88.5253 71.7566L88.9842 71.2381L89.4431 71.7566L88.9842 72.2768Z" fill="#EFB900"/>
<path d="M88.9842 71.0686L88.5253 70.5484L88.9842 70.0298L89.4431 70.5484L88.9842 71.0686Z" fill="#EFB900"/>
<path d="M88.9842 69.8603L88.5253 69.3401L88.9842 68.8215L89.4431 69.3401L88.9842 69.8603Z" fill="#EFB900"/>
<path d="M88.9842 68.652L88.5253 68.1318L88.9842 67.6133L89.4431 68.1318L88.9842 68.652Z" fill="#EFB900"/>
<path d="M89.667 71.5971L89.2081 71.0769L89.667 70.5584L90.1259 71.0769L89.667 71.5971Z" fill="#EFB900"/>
<path d="M89.667 70.3888L89.2081 69.8686L89.667 69.3501L90.1259 69.8686L89.667 70.3888Z" fill="#EFB900"/>
<path d="M89.667 69.1806L89.2081 68.6603L89.667 68.1418L90.1259 68.6603L89.667 69.1806Z" fill="#EFB900"/>
<path d="M90.3542 70.9888L89.8954 70.4686L90.3542 69.9501L90.8131 70.4686L90.3542 70.9888Z" fill="#EFB900"/>
<path d="M90.3542 69.7805L89.8954 69.2603L90.3542 68.7418L90.8131 69.2603L90.3542 69.7805Z" fill="#EFB900"/>
<path d="M90.9756 70.3888L90.5167 69.8686L90.9756 69.3501L91.4345 69.8686L90.9756 70.3888Z" fill="#EFB900"/>
<path d="M87.6141 72.2768L88.073 71.7566L87.6141 71.2381L87.1552 71.7566L87.6141 72.2768Z" fill="#EFB900"/>
<path d="M87.6141 71.0686L88.073 70.5484L87.6141 70.0298L87.1552 70.5484L87.6141 71.0686Z" fill="#EFB900"/>
<path d="M87.6141 69.8603L88.073 69.3401L87.6141 68.8215L87.1552 69.3401L87.6141 69.8603Z" fill="#EFB900"/>
<path d="M87.6141 68.652L88.073 68.1318L87.6141 67.6133L87.1552 68.1318L87.6141 68.652Z" fill="#EFB900"/>
<path d="M86.9313 71.5971L87.3901 71.0769L86.9313 70.5584L86.4724 71.0769L86.9313 71.5971Z" fill="#EFB900"/>
<path d="M86.9313 70.3888L87.3901 69.8686L86.9313 69.3501L86.4724 69.8686L86.9313 70.3888Z" fill="#EFB900"/>
<path d="M86.9313 69.1806L87.3901 68.6603L86.9313 68.1418L86.4724 68.6603L86.9313 69.1806Z" fill="#EFB900"/>
<path d="M86.2462 70.9888L86.7051 70.4686L86.2462 69.9501L85.7874 70.4686L86.2462 70.9888Z" fill="#EFB900"/>
<path d="M86.2462 69.7805L86.7051 69.2603L86.2462 68.7418L85.7874 69.2603L86.2462 69.7805Z" fill="#EFB900"/>
<path d="M85.6227 70.3888L86.0816 69.8686L85.6227 69.3501L85.1638 69.8686L85.6227 70.3888Z" fill="#EFB900"/>
<path d="M298.72 48.0947C298.646 48.0947 298.584 48.0814 298.584 48.0632V48.0316C298.584 48.015 298.646 48 298.72 48C298.795 48 298.856 48.0133 298.856 48.0316V48.0632C298.856 48.0798 298.795 48.0947 298.72 48.0947Z" fill="#612E96"/>
<path d="M298.72 48.339C298.646 48.339 298.584 48.3258 298.584 48.3075V48.246C298.584 48.2294 298.646 48.2144 298.72 48.2144C298.795 48.2144 298.856 48.2277 298.856 48.246V48.3075C298.856 48.3241 298.795 48.339 298.72 48.339Z" fill="#612E96"/>
<path d="M298.72 61.5569C298.646 61.5569 298.584 61.5436 298.584 61.5254V61.4639C298.584 61.4472 298.646 61.4323 298.72 61.4323C298.795 61.4323 298.856 61.4456 298.856 61.4639V61.5254C298.856 61.542 298.795 61.5569 298.72 61.5569ZM298.72 61.3126C298.646 61.3126 298.584 61.2993 298.584 61.281V61.2195C298.584 61.2029 298.646 61.188 298.72 61.188C298.795 61.188 298.856 61.2013 298.856 61.2195V61.281C298.856 61.2977 298.795 61.3126 298.72 61.3126ZM298.72 61.0683C298.646 61.0683 298.584 61.055 298.584 61.0367V60.9752C298.584 60.9586 298.646 60.9437 298.72 60.9437C298.795 60.9437 298.856 60.9569 298.856 60.9752V61.0367C298.856 61.0533 298.795 61.0683 298.72 61.0683ZM298.72 60.824C298.646 60.824 298.584 60.8107 298.584 60.7924V60.7309C298.584 60.7143 298.646 60.6993 298.72 60.6993C298.795 60.6993 298.856 60.7126 298.856 60.7309V60.7924C298.856 60.809 298.795 60.824 298.72 60.824ZM298.72 60.5797C298.646 60.5797 298.584 60.5664 298.584 60.5481V60.4866C298.584 60.47 298.646 60.455 298.72 60.455C298.795 60.455 298.856 60.4683 298.856 60.4866V60.5481C298.856 60.5647 298.795 60.5797 298.72 60.5797ZM298.72 60.3354C298.646 60.3354 298.584 60.3221 298.584 60.3038V60.2423C298.584 60.2257 298.646 60.2107 298.72 60.2107C298.795 60.2107 298.856 60.224 298.856 60.2423V60.3038C298.856 60.3204 298.795 60.3354 298.72 60.3354ZM298.72 60.091C298.646 60.091 298.584 60.0777 298.584 60.0595V59.998C298.584 59.9814 298.646 59.9664 298.72 59.9664C298.795 59.9664 298.856 59.9797 298.856 59.998V60.0595C298.856 60.0761 298.795 60.091 298.72 60.091ZM298.72 59.8467C298.646 59.8467 298.584 59.8334 298.584 59.8152V59.7537C298.584 59.737 298.646 59.7221 298.72 59.7221C298.795 59.7221 298.856 59.7354 298.856 59.7537V59.8152C298.856 59.8318 298.795 59.8467 298.72 59.8467ZM298.72 59.6024C298.646 59.6024 298.584 59.5891 298.584 59.5708V59.5093C298.584 59.4927 298.646 59.4778 298.72 59.4778C298.795 59.4778 298.856 59.4911 298.856 59.5093V59.5708C298.856 59.5875 298.795 59.6024 298.72 59.6024ZM298.72 59.3581C298.646 59.3581 298.584 59.3448 298.584 59.3265V59.265C298.584 59.2484 298.646 59.2335 298.72 59.2335C298.795 59.2335 298.856 59.2467 298.856 59.265V59.3265C298.856 59.3432 298.795 59.3581 298.72 59.3581ZM298.72 59.1138C298.646 59.1138 298.584 59.1005 298.584 59.0822V59.0207C298.584 59.0041 298.646 58.9891 298.72 58.9891C298.795 58.9891 298.856 59.0024 298.856 59.0207V59.0822C298.856 59.0988 298.795 59.1138 298.72 59.1138ZM298.72 58.8695C298.646 58.8695 298.584 58.8562 298.584 58.8379V58.7764C298.584 58.7598 298.646 58.7448 298.72 58.7448C298.795 58.7448 298.856 58.7581 298.856 58.7764V58.8379C298.856 58.8545 298.795 58.8695 298.72 58.8695ZM298.72 58.6252C298.646 58.6252 298.584 58.6119 298.584 58.5936V58.5321C298.584 58.5155 298.646 58.5005 298.72 58.5005C298.795 58.5005 298.856 58.5138 298.856 58.5321V58.5936C298.856 58.6102 298.795 58.6252 298.72 58.6252ZM298.72 58.3809C298.646 58.3809 298.584 58.3676 298.584 58.3493V58.2878C298.584 58.2712 298.646 58.2562 298.72 58.2562C298.795 58.2562 298.856 58.2695 298.856 58.2878V58.3493C298.856 58.3659 298.795 58.3809 298.72 58.3809ZM298.72 58.1365C298.646 58.1365 298.584 58.1232 298.584 58.105V58.0435C298.584 58.0268 298.646 58.0119 298.72 58.0119C298.795 58.0119 298.856 58.0252 298.856 58.0435V58.105C298.856 58.1216 298.795 58.1365 298.72 58.1365ZM298.72 57.8922C298.646 57.8922 298.584 57.8789 298.584 57.8606V57.7991C298.584 57.7825 298.646 57.7676 298.72 57.7676C298.795 57.7676 298.856 57.7809 298.856 57.7991V57.8606C298.856 57.8773 298.795 57.8922 298.72 57.8922ZM298.72 57.6479C298.646 57.6479 298.584 57.6346 298.584 57.6163V57.5548C298.584 57.5382 298.646 57.5233 298.72 57.5233C298.795 57.5233 298.856 57.5366 298.856 57.5548V57.6163C298.856 57.6329 298.795 57.6479 298.72 57.6479ZM298.72 57.4036C298.646 57.4036 298.584 57.3903 298.584 57.372V57.3105C298.584 57.2939 298.646 57.2789 298.72 57.2789C298.795 57.2789 298.856 57.2922 298.856 57.3105V57.372C298.856 57.3886 298.795 57.4036 298.72 57.4036ZM298.72 57.1593C298.646 57.1593 298.584 57.146 298.584 57.1277V57.0662C298.584 57.0496 298.646 57.0346 298.72 57.0346C298.795 57.0346 298.856 57.0479 298.856 57.0662V57.1277C298.856 57.1443 298.795 57.1593 298.72 57.1593ZM298.72 56.915C298.646 56.915 298.584 56.9017 298.584 56.8834V56.8219C298.584 56.8053 298.646 56.7903 298.72 56.7903C298.795 56.7903 298.856 56.8036 298.856 56.8219V56.8834C298.856 56.9 298.795 56.915 298.72 56.915ZM298.72 56.6707C298.646 56.6707 298.584 56.6574 298.584 56.6391V56.5776C298.584 56.561 298.646 56.546 298.72 56.546C298.795 56.546 298.856 56.5593 298.856 56.5776V56.6391C298.856 56.6557 298.795 56.6707 298.72 56.6707ZM298.72 56.4263C298.646 56.4263 298.584 56.413 298.584 56.3948V56.3333C298.584 56.3166 298.646 56.3017 298.72 56.3017C298.795 56.3017 298.856 56.315 298.856 56.3333V56.3948C298.856 56.4114 298.795 56.4263 298.72 56.4263ZM298.72 56.182C298.646 56.182 298.584 56.1687 298.584 56.1504V56.089C298.584 56.0723 298.646 56.0574 298.72 56.0574C298.795 56.0574 298.856 56.0707 298.856 56.089V56.1504C298.856 56.1671 298.795 56.182 298.72 56.182ZM298.72 55.9377C298.646 55.9377 298.584 55.9244 298.584 55.9061V55.8446C298.584 55.828 298.646 55.8131 298.72 55.8131C298.795 55.8131 298.856 55.8264 298.856 55.8446V55.9061C298.856 55.9227 298.795 55.9377 298.72 55.9377ZM298.72 55.6934C298.646 55.6934 298.584 55.6801 298.584 55.6618V55.6003C298.584 55.5837 298.646 55.5687 298.72 55.5687C298.795 55.5687 298.856 55.582 298.856 55.6003V55.6618C298.856 55.6784 298.795 55.6934 298.72 55.6934ZM298.72 55.4491C298.646 55.4491 298.584 55.4358 298.584 55.4175V55.356C298.584 55.3394 298.646 55.3244 298.72 55.3244C298.795 55.3244 298.856 55.3377 298.856 55.356V55.4175C298.856 55.4341 298.795 55.4491 298.72 55.4491ZM298.72 55.2048C298.646 55.2048 298.584 55.1915 298.584 55.1732V55.1117C298.584 55.0951 298.646 55.0801 298.72 55.0801C298.795 55.0801 298.856 55.0934 298.856 55.1117V55.1732C298.856 55.1898 298.795 55.2048 298.72 55.2048ZM298.72 54.9605C298.646 54.9605 298.584 54.9472 298.584 54.9289V54.8674C298.584 54.8508 298.646 54.8358 298.72 54.8358C298.795 54.8358 298.856 54.8491 298.856 54.8674V54.9289C298.856 54.9455 298.795 54.9605 298.72 54.9605ZM298.72 54.7161C298.646 54.7161 298.584 54.7028 298.584 54.6846V54.6231C298.584 54.6064 298.646 54.5915 298.72 54.5915C298.795 54.5915 298.856 54.6048 298.856 54.6231V54.6846C298.856 54.7012 298.795 54.7161 298.72 54.7161ZM298.72 54.4718C298.646 54.4718 298.584 54.4585 298.584 54.4402V54.3788C298.584 54.3621 298.646 54.3472 298.72 54.3472C298.795 54.3472 298.856 54.3605 298.856 54.3788V54.4402C298.856 54.4569 298.795 54.4718 298.72 54.4718ZM298.72 54.2275C298.646 54.2275 298.584 54.2142 298.584 54.1959V54.1344C298.584 54.1178 298.646 54.1029 298.72 54.1029C298.795 54.1029 298.856 54.1162 298.856 54.1344V54.1959C298.856 54.2126 298.795 54.2275 298.72 54.2275ZM298.72 53.9832C298.646 53.9832 298.584 53.9699 298.584 53.9516V53.8901C298.584 53.8735 298.646 53.8585 298.72 53.8585C298.795 53.8585 298.856 53.8718 298.856 53.8901V53.9516C298.856 53.9682 298.795 53.9832 298.72 53.9832ZM298.72 53.7389C298.646 53.7389 298.584 53.7256 298.584 53.7073V53.6458C298.584 53.6292 298.646 53.6142 298.72 53.6142C298.795 53.6142 298.856 53.6275 298.856 53.6458V53.7073C298.856 53.7239 298.795 53.7389 298.72 53.7389ZM298.72 53.4946C298.646 53.4946 298.584 53.4813 298.584 53.463V53.4015C298.584 53.3849 298.646 53.3699 298.72 53.3699C298.795 53.3699 298.856 53.3832 298.856 53.4015V53.463C298.856 53.4796 298.795 53.4946 298.72 53.4946ZM298.72 53.2503C298.646 53.2503 298.584 53.237 298.584 53.2187V53.1572C298.584 53.1406 298.646 53.1256 298.72 53.1256C298.795 53.1256 298.856 53.1389 298.856 53.1572V53.2187C298.856 53.2353 298.795 53.2503 298.72 53.2503ZM298.72 53.0059C298.646 53.0059 298.584 52.9926 298.584 52.9744V52.9129C298.584 52.8962 298.646 52.8813 298.72 52.8813C298.795 52.8813 298.856 52.8946 298.856 52.9129V52.9744C298.856 52.991 298.795 53.0059 298.72 53.0059ZM298.72 52.7616C298.646 52.7616 298.584 52.7483 298.584 52.73V52.6686C298.584 52.6519 298.646 52.637 298.72 52.637C298.795 52.637 298.856 52.6503 298.856 52.6686V52.73C298.856 52.7467 298.795 52.7616 298.72 52.7616ZM298.72 52.5173C298.646 52.5173 298.584 52.504 298.584 52.4857V52.4242C298.584 52.4076 298.646 52.3927 298.72 52.3927C298.795 52.3927 298.856 52.406 298.856 52.4242V52.4857C298.856 52.5024 298.795 52.5173 298.72 52.5173ZM298.72 52.273C298.646 52.273 298.584 52.2597 298.584 52.2414V52.1799C298.584 52.1633 298.646 52.1483 298.72 52.1483C298.795 52.1483 298.856 52.1616 298.856 52.1799V52.2414C298.856 52.258 298.795 52.273 298.72 52.273ZM298.72 52.0287C298.646 52.0287 298.584 52.0154 298.584 51.9971V51.9356C298.584 51.919 298.646 51.904 298.72 51.904C298.795 51.904 298.856 51.9173 298.856 51.9356V51.9971C298.856 52.0137 298.795 52.0287 298.72 52.0287ZM298.72 51.7844C298.646 51.7844 298.584 51.7711 298.584 51.7528V51.6913C298.584 51.6747 298.646 51.6597 298.72 51.6597C298.795 51.6597 298.856 51.673 298.856 51.6913V51.7528C298.856 51.7694 298.795 51.7844 298.72 51.7844ZM298.72 51.5401C298.646 51.5401 298.584 51.5268 298.584 51.5085V51.447C298.584 51.4304 298.646 51.4154 298.72 51.4154C298.795 51.4154 298.856 51.4287 298.856 51.447V51.5085C298.856 51.5251 298.795 51.5401 298.72 51.5401ZM298.72 51.2957C298.646 51.2957 298.584 51.2824 298.584 51.2642V51.2027C298.584 51.186 298.646 51.1711 298.72 51.1711C298.795 51.1711 298.856 51.1844 298.856 51.2027V51.2642C298.856 51.2808 298.795 51.2957 298.72 51.2957ZM298.72 51.0514C298.646 51.0514 298.584 51.0381 298.584 51.0198V50.9584C298.584 50.9417 298.646 50.9268 298.72 50.9268C298.795 50.9268 298.856 50.9401 298.856 50.9584V51.0198C298.856 51.0365 298.795 51.0514 298.72 51.0514ZM298.72 50.8071C298.646 50.8071 298.584 50.7938 298.584 50.7755V50.714C298.584 50.6974 298.646 50.6825 298.72 50.6825C298.795 50.6825 298.856 50.6958 298.856 50.714V50.7755C298.856 50.7922 298.795 50.8071 298.72 50.8071ZM298.72 50.5628C298.646 50.5628 298.584 50.5495 298.584 50.5312V50.4697C298.584 50.4531 298.646 50.4381 298.72 50.4381C298.795 50.4381 298.856 50.4514 298.856 50.4697V50.5312C298.856 50.5478 298.795 50.5628 298.72 50.5628ZM298.72 50.3185C298.646 50.3185 298.584 50.3052 298.584 50.2869V50.2254C298.584 50.2088 298.646 50.1938 298.72 50.1938C298.795 50.1938 298.856 50.2071 298.856 50.2254V50.2869C298.856 50.3035 298.795 50.3185 298.72 50.3185ZM298.72 50.0742C298.646 50.0742 298.584 50.0609 298.584 50.0426V49.9811C298.584 49.9645 298.646 49.9495 298.72 49.9495C298.795 49.9495 298.856 49.9628 298.856 49.9811V50.0426C298.856 50.0592 298.795 50.0742 298.72 50.0742ZM298.72 49.8299C298.646 49.8299 298.584 49.8166 298.584 49.7983V49.7368C298.584 49.7202 298.646 49.7052 298.72 49.7052C298.795 49.7052 298.856 49.7185 298.856 49.7368V49.7983C298.856 49.8149 298.795 49.8299 298.72 49.8299ZM298.72 49.5855C298.646 49.5855 298.584 49.5722 298.584 49.554V49.4925C298.584 49.4758 298.646 49.4609 298.72 49.4609C298.795 49.4609 298.856 49.4742 298.856 49.4925V49.554C298.856 49.5706 298.795 49.5855 298.72 49.5855ZM298.72 49.3412C298.646 49.3412 298.584 49.3279 298.584 49.3096V49.2482C298.584 49.2315 298.646 49.2166 298.72 49.2166C298.795 49.2166 298.856 49.2299 298.856 49.2482V49.3096C298.856 49.3263 298.795 49.3412 298.72 49.3412ZM298.72 49.0969C298.646 49.0969 298.584 49.0836 298.584 49.0653V49.0038C298.584 48.9872 298.646 48.9723 298.72 48.9723C298.795 48.9723 298.856 48.9856 298.856 49.0038V49.0653C298.856 49.082 298.795 49.0969 298.72 49.0969ZM298.72 48.8526C298.646 48.8526 298.584 48.8393 298.584 48.821V48.7595C298.584 48.7429 298.646 48.7279 298.72 48.7279C298.795 48.7279 298.856 48.7412 298.856 48.7595V48.821C298.856 48.8376 298.795 48.8526 298.72 48.8526ZM298.72 48.6083C298.646 48.6083 298.584 48.595 298.584 48.5767V48.5152C298.584 48.4986 298.646 48.4836 298.72 48.4836C298.795 48.4836 298.856 48.4969 298.856 48.5152V48.5767C298.856 48.5933 298.795 48.6083 298.72 48.6083Z" fill="#612E96"/>
<path d="M298.72 61.7713C298.646 61.7713 298.584 61.7581 298.584 61.7398V61.7082C298.584 61.6916 298.646 61.6766 298.72 61.6766C298.795 61.6766 298.856 61.6899 298.856 61.7082V61.7398C298.856 61.7564 298.795 61.7713 298.72 61.7713Z" fill="#612E96"/>
<path d="M296.171 86H295.66C295.66 85.3751 295.495 85.0709 295.319 84.7485C295.133 84.4061 294.939 84.0505 294.939 83.3491C294.939 82.6477 295.133 82.2937 295.319 81.9497C295.495 81.6273 295.66 81.3231 295.66 80.6982C295.66 80.0733 295.495 79.7692 295.319 79.4467C295.133 79.1044 294.939 78.7487 294.939 78.0473C294.939 77.346 295.133 76.992 295.319 76.6479C295.495 76.3255 295.66 76.0213 295.66 75.3964H296.171C296.171 76.0978 295.978 76.4518 295.791 76.7958C295.616 77.1183 295.451 77.4224 295.451 78.0473C295.451 78.6722 295.616 78.9764 295.791 79.2988C295.978 79.6412 296.171 79.9969 296.171 80.6982C296.171 81.3996 295.978 81.7536 295.791 82.0976C295.616 82.42 295.451 82.7242 295.451 83.3491C295.451 83.974 295.616 84.2782 295.791 84.6006C295.978 84.943 296.171 85.2986 296.171 86Z" fill="#612E96"/>
<path d="M297.418 86H296.907C296.907 85.3751 296.742 85.0709 296.566 84.7485C296.38 84.4061 296.187 84.0505 296.187 83.3491C296.187 82.6477 296.38 82.2937 296.566 81.9497C296.742 81.6273 296.907 81.3231 296.907 80.6982C296.907 80.0733 296.742 79.7692 296.566 79.4467C296.38 79.1044 296.187 78.7487 296.187 78.0473C296.187 77.346 296.38 76.992 296.566 76.6479C296.742 76.3255 296.907 76.0213 296.907 75.3964H297.418C297.418 76.0978 297.225 76.4518 297.038 76.7958C296.863 77.1183 296.698 77.4224 296.698 78.0473C296.698 78.6722 296.863 78.9764 297.038 79.2988C297.225 79.6412 297.418 79.9969 297.418 80.6982C297.418 81.3996 297.225 81.7536 297.038 82.0976C296.863 82.42 296.698 82.7242 296.698 83.3491C296.698 83.974 296.863 84.2782 297.038 84.6006C297.225 84.943 297.418 85.2986 297.418 86Z" fill="#D35538"/>
<path d="M298.663 86H298.152C298.152 85.3751 297.987 85.0709 297.811 84.7485C297.625 84.4061 297.431 84.0505 297.431 83.3491C297.431 82.6477 297.625 82.2937 297.811 81.9497C297.987 81.6273 298.152 81.3231 298.152 80.6982C298.152 80.0733 297.987 79.7692 297.811 79.4467C297.625 79.1044 297.431 78.7487 297.431 78.0473C297.431 77.346 297.625 76.992 297.811 76.6479C297.987 76.3255 298.152 76.0213 298.152 75.3964H298.663C298.663 76.0978 298.47 76.4518 298.283 76.7958C298.108 77.1183 297.943 77.4224 297.943 78.0473C297.943 78.6722 298.108 78.9764 298.283 79.2988C298.47 79.6412 298.663 79.9969 298.663 80.6982C298.663 81.3996 298.47 81.7536 298.283 82.0976C298.108 82.42 297.943 82.7242 297.943 83.3491C297.943 83.974 298.108 84.2782 298.283 84.6006C298.47 84.943 298.663 85.2986 298.663 86Z" fill="#612E96"/>
<path d="M299.91 86H299.399C299.399 85.3751 299.234 85.0709 299.058 84.7485C298.872 84.4061 298.679 84.0505 298.679 83.3491C298.679 82.6477 298.872 82.2937 299.058 81.9497C299.234 81.6273 299.399 81.3231 299.399 80.6982C299.399 80.0733 299.234 79.7692 299.058 79.4467C298.872 79.1044 298.679 78.7487 298.679 78.0473C298.679 77.346 298.872 76.992 299.058 76.6479C299.234 76.3255 299.399 76.0213 299.399 75.3964H299.91C299.91 76.0978 299.717 76.4518 299.53 76.7958C299.355 77.1183 299.19 77.4224 299.19 78.0473C299.19 78.6722 299.355 78.9764 299.53 79.2988C299.717 79.6412 299.91 79.9969 299.91 80.6982C299.91 81.3996 299.717 81.7536 299.53 82.0976C299.355 82.42 299.19 82.7242 299.19 83.3491C299.19 83.974 299.355 84.2782 299.53 84.6006C299.717 84.943 299.91 85.2986 299.91 86Z" fill="#D35538"/>
<path d="M301.157 86H300.646C300.646 85.3751 300.481 85.0709 300.305 84.7485C300.119 84.4061 299.926 84.0505 299.926 83.3491C299.926 82.6477 300.119 82.2937 300.305 81.9497C300.481 81.6273 300.646 81.3231 300.646 80.6982C300.646 80.0733 300.481 79.7692 300.305 79.4467C300.119 79.1044 299.926 78.7487 299.926 78.0473C299.926 77.346 300.119 76.992 300.305 76.6479C300.481 76.3255 300.646 76.0213 300.646 75.3964H301.157C301.157 76.0978 300.964 76.4518 300.778 76.7958C300.602 77.1183 300.437 77.4224 300.437 78.0473C300.437 78.6722 300.602 78.9764 300.778 79.2988C300.964 79.6412 301.157 79.9969 301.157 80.6982C301.157 81.3996 300.964 81.7536 300.778 82.0976C300.602 82.42 300.437 82.7242 300.437 83.3491C300.437 83.974 300.602 84.2782 300.778 84.6006C300.964 84.943 301.157 85.2986 301.157 86Z" fill="#612E96"/>
<path d="M302.402 86H301.891C301.891 85.3751 301.726 85.0709 301.55 84.7485C301.364 84.4061 301.171 84.0505 301.171 83.3491C301.171 82.6477 301.364 82.2937 301.55 81.9497C301.726 81.6273 301.891 81.3231 301.891 80.6982C301.891 80.0733 301.726 79.7692 301.55 79.4467C301.364 79.1044 301.171 78.7487 301.171 78.0473C301.171 77.346 301.364 76.992 301.55 76.6479C301.726 76.3255 301.891 76.0213 301.891 75.3964H302.402C302.402 76.0978 302.209 76.4518 302.022 76.7958C301.847 77.1183 301.682 77.4224 301.682 78.0473C301.682 78.6722 301.847 78.9764 302.022 79.2988C302.209 79.6412 302.402 79.9969 302.402 80.6982C302.402 81.3996 302.209 81.7536 302.022 82.0976C301.847 82.42 301.682 82.7242 301.682 83.3491C301.682 83.974 301.847 84.2782 302.022 84.6006C302.209 84.943 302.402 85.2986 302.402 86Z" fill="#D35538"/>
<path d="M302.751 65.8166H294.827V74.0236H302.751V65.8166Z" fill="#612E96"/>
<path d="M302.751 64.4455H294.827V64.8311H302.751V64.4455Z" fill="#612E96"/>
<path d="M302.751 65.4826H294.827V65.7302H302.751V65.4826Z" fill="#612E96"/>
<path d="M295.286 64.4472L298.733 61.8378L298.867 61.7364L298.733 61.6351L295.016 64.4472H295.286Z" fill="#612E96"/>
<path d="M302.181 64.4472H302.448L298.867 61.7364L298.733 61.6351L298.599 61.7364L298.733 61.8378L302.181 64.4472Z" fill="#612E96"/>
<path d="M302.751 64.9591H294.827V65.3446H302.751V64.9591Z" fill="#D35538"/>
<path d="M302.751 74.1134H294.827V74.4989H302.751V74.1134Z" fill="#612E96"/>
<path d="M302.751 75.1488H294.827V75.3964H302.751V75.1488Z" fill="#612E96"/>
<path d="M302.751 74.6253H294.827V75.0109H302.751V74.6253Z" fill="#D35538"/>
<path d="M290.744 69.9201L294.827 74.0253L294.827 65.8166L290.744 69.9201Z" fill="#612E96"/>
<path d="M306.785 69.9201L302.701 74.0253V65.8166L306.785 69.9201Z" fill="#612E96"/>
<path d="M294.827 65.8166L298.788 69.9201L302.749 65.8166H294.825H294.827ZM296.336 66.4632H301.243L298.791 68.8797L296.338 66.4632H296.336ZM297.291 66.8238H300.286L298.788 68.2997L297.291 66.8238Z" fill="#EFB900"/>
<path d="M302.751 74.0253L298.791 69.9218L294.83 74.0253H302.754H302.751ZM301.243 73.3788H296.336L298.788 70.9622L301.241 73.3788H301.243ZM300.369 73.0596H297.21L298.788 71.504L300.367 73.0596H300.369Z" fill="#EFB900"/>
<path d="M302.813 72.9117L302.354 72.3915L302.813 71.873L303.272 72.3915L302.813 72.9117Z" fill="#EFB900"/>
<path d="M302.813 71.7035L302.354 71.1833L302.813 70.6647L303.272 71.1833L302.813 71.7035Z" fill="#EFB900"/>
<path d="M302.813 70.4952L302.354 69.975L302.813 69.4564L303.272 69.975L302.813 70.4952Z" fill="#EFB900"/>
<path d="M302.813 69.2869L302.354 68.7667L302.813 68.2482L303.272 68.7667L302.813 69.2869Z" fill="#EFB900"/>
<path d="M302.813 68.077L302.354 67.5584L302.813 67.0382L303.272 67.5584L302.813 68.077Z" fill="#EFB900"/>
<path d="M303.436 72.2768L302.978 71.7566L303.436 71.2381L303.895 71.7566L303.436 72.2768Z" fill="#EFB900"/>
<path d="M303.436 71.0686L302.978 70.5484L303.436 70.0298L303.895 70.5484L303.436 71.0686Z" fill="#EFB900"/>
<path d="M303.436 69.8603L302.978 69.3401L303.436 68.8215L303.895 69.3401L303.436 69.8603Z" fill="#EFB900"/>
<path d="M303.436 68.652L302.978 68.1318L303.436 67.6133L303.895 68.1318L303.436 68.652Z" fill="#EFB900"/>
<path d="M304.119 71.5971L303.66 71.0769L304.119 70.5584L304.578 71.0769L304.119 71.5971Z" fill="#EFB900"/>
<path d="M304.119 70.3888L303.66 69.8686L304.119 69.3501L304.578 69.8686L304.119 70.3888Z" fill="#EFB900"/>
<path d="M304.119 69.1806L303.66 68.6603L304.119 68.1418L304.578 68.6603L304.119 69.1806Z" fill="#EFB900"/>
<path d="M304.806 70.9888L304.348 70.4686L304.806 69.9501L305.265 70.4686L304.806 70.9888Z" fill="#EFB900"/>
<path d="M304.806 69.7805L304.348 69.2603L304.806 68.7418L305.265 69.2603L304.806 69.7805Z" fill="#EFB900"/>
<path d="M305.428 70.3888L304.969 69.8686L305.428 69.3501L305.887 69.8686L305.428 70.3888Z" fill="#EFB900"/>
<path d="M302.066 72.2768L302.525 71.7566L302.066 71.2381L301.607 71.7566L302.066 72.2768Z" fill="#EFB900"/>
<path d="M302.066 71.0686L302.525 70.5484L302.066 70.0298L301.607 70.5484L302.066 71.0686Z" fill="#EFB900"/>
<path d="M302.066 69.8603L302.525 69.3401L302.066 68.8215L301.607 69.3401L302.066 69.8603Z" fill="#EFB900"/>
<path d="M302.066 68.652L302.525 68.1318L302.066 67.6133L301.607 68.1318L302.066 68.652Z" fill="#EFB900"/>
<path d="M301.384 71.5971L301.842 71.0769L301.384 70.5584L300.925 71.0769L301.384 71.5971Z" fill="#EFB900"/>
<path d="M301.384 70.3888L301.842 69.8686L301.384 69.3501L300.925 69.8686L301.384 70.3888Z" fill="#EFB900"/>
<path d="M301.384 69.1806L301.842 68.6603L301.384 68.1418L300.925 68.6603L301.384 69.1806Z" fill="#EFB900"/>
<path d="M300.696 70.9888L301.157 70.4686L300.696 69.9501L300.237 70.4686L300.696 70.9888Z" fill="#EFB900"/>
<path d="M300.696 69.7805L301.157 69.2603L300.696 68.7418L300.237 69.2603L300.696 69.7805Z" fill="#EFB900"/>
<path d="M300.075 70.3888L300.534 69.8686L300.075 69.3501L299.616 69.8686L300.075 70.3888Z" fill="#EFB900"/>
<path d="M294.889 72.9117L294.43 72.3915L294.889 71.873L295.348 72.3915L294.889 72.9117Z" fill="#EFB900"/>
<path d="M294.889 71.7035L294.43 71.1833L294.889 70.6647L295.348 71.1833L294.889 71.7035Z" fill="#EFB900"/>
<path d="M294.889 70.4952L294.43 69.975L294.889 69.4564L295.348 69.975L294.889 70.4952Z" fill="#EFB900"/>
<path d="M294.889 69.2869L294.43 68.7667L294.889 68.2482L295.348 68.7667L294.889 69.2869Z" fill="#EFB900"/>
<path d="M294.889 68.077L294.43 67.5584L294.889 67.0382L295.348 67.5584L294.889 68.077Z" fill="#EFB900"/>
<path d="M295.513 72.2768L295.054 71.7566L295.513 71.2381L295.971 71.7566L295.513 72.2768Z" fill="#EFB900"/>
<path d="M295.513 71.0686L295.054 70.5484L295.513 70.0298L295.971 70.5484L295.513 71.0686Z" fill="#EFB900"/>
<path d="M295.513 69.8603L295.054 69.3401L295.513 68.8215L295.971 69.3401L295.513 69.8603Z" fill="#EFB900"/>
<path d="M295.513 68.652L295.054 68.1318L295.513 67.6133L295.971 68.1318L295.513 68.652Z" fill="#EFB900"/>
<path d="M296.195 71.5971L295.736 71.0769L296.195 70.5584L296.654 71.0769L296.195 71.5971Z" fill="#EFB900"/>
<path d="M296.195 70.3888L295.736 69.8686L296.195 69.3501L296.654 69.8686L296.195 70.3888Z" fill="#EFB900"/>
<path d="M296.195 69.1806L295.736 68.6603L296.195 68.1418L296.654 68.6603L296.195 69.1806Z" fill="#EFB900"/>
<path d="M296.883 70.9888L296.424 70.4686L296.883 69.9501L297.341 70.4686L296.883 70.9888Z" fill="#EFB900"/>
<path d="M296.883 69.7805L296.424 69.2603L296.883 68.7418L297.341 69.2603L296.883 69.7805Z" fill="#EFB900"/>
<path d="M297.504 70.3888L297.045 69.8686L297.504 69.3501L297.963 69.8686L297.504 70.3888Z" fill="#EFB900"/>
<path d="M294.142 72.2768L294.601 71.7566L294.142 71.2381L293.684 71.7566L294.142 72.2768Z" fill="#EFB900"/>
<path d="M294.142 71.0686L294.601 70.5484L294.142 70.0298L293.684 70.5484L294.142 71.0686Z" fill="#EFB900"/>
<path d="M294.142 69.8603L294.601 69.3401L294.142 68.8215L293.684 69.3401L294.142 69.8603Z" fill="#EFB900"/>
<path d="M294.142 68.652L294.601 68.1318L294.142 67.6133L293.684 68.1318L294.142 68.652Z" fill="#EFB900"/>
<path d="M293.46 71.5971L293.918 71.0769L293.46 70.5584L293.001 71.0769L293.46 71.5971Z" fill="#EFB900"/>
<path d="M293.46 70.3888L293.918 69.8686L293.46 69.3501L293.001 69.8686L293.46 70.3888Z" fill="#EFB900"/>
<path d="M293.46 69.1806L293.918 68.6603L293.46 68.1418L293.001 68.6603L293.46 69.1806Z" fill="#EFB900"/>
<path d="M292.775 70.9888L293.233 70.4686L292.775 69.9501L292.316 70.4686L292.775 70.9888Z" fill="#EFB900"/>
<path d="M292.775 69.7805L293.233 69.2603L292.775 68.7418L292.316 69.2603L292.775 69.7805Z" fill="#EFB900"/>
<path d="M292.151 70.3888L292.61 69.8686L292.151 69.3501L291.692 69.8686L292.151 70.3888Z" fill="#EFB900"/>
</svg>
