<svg width="505" height="150" viewBox="0 0 505 150" fill="none" xmlns="http://www.w3.org/2000/svg">
<path d="M142 112.931L69.6606 150V75.8619L142 38.793V112.931Z" fill="#2563EB" fillOpacity="0.55"/>
<path d="M69.6606 0V72.4138L142 36.2069L69.6606 0Z" fill="#2563EB" fillOpacity="0.15"/>
<path d="M0 38.793L69.6603 75.8619V150L0 112.931V38.793Z" fill="#2563EB" fillOpacity="0.86"/>
<path d="M174.62 52.8H191.648C196.004 52.8 199.634 54.252 202.538 57.156C205.486 60.06 206.96 63.668 206.96 67.98C206.96 72.248 205.486 75.856 202.538 78.804C199.634 81.708 196.004 83.16 191.648 83.16H182.21V99H174.62V52.8ZM182.21 76.032H191.648C193.892 76.032 195.74 75.284 197.192 73.788C198.644 72.248 199.37 70.312 199.37 67.98C199.37 65.648 198.644 63.734 197.192 62.238C195.74 60.698 193.892 59.928 191.648 59.928H182.21V76.032ZM217.591 66V71.544C219.395 67.452 222.783 65.406 227.755 65.406V73.128C225.071 72.952 222.695 73.612 220.627 75.108C218.603 76.56 217.591 78.98 217.591 82.368V99H210.463V66H217.591ZM257.413 94.842C254.069 98.186 249.955 99.858 245.071 99.858C240.187 99.858 236.073 98.186 232.729 94.842C229.341 91.454 227.647 87.34 227.647 82.5C227.647 77.66 229.341 73.546 232.729 70.158C236.073 66.814 240.187 65.142 245.071 65.142C249.955 65.142 254.069 66.814 257.413 70.158C260.801 73.546 262.495 77.66 262.495 82.5C262.495 87.34 260.801 91.454 257.413 94.842ZM234.775 82.5C234.775 85.492 235.765 87.978 237.745 89.958C239.725 91.938 242.167 92.928 245.071 92.928C247.975 92.928 250.417 91.938 252.397 89.958C254.377 87.978 255.367 85.492 255.367 82.5C255.367 79.508 254.377 77.022 252.397 75.042C250.417 73.062 247.975 72.072 245.071 72.072C242.167 72.072 239.725 73.062 237.745 75.042C235.765 77.022 234.775 79.508 234.775 82.5ZM282.536 99.858C277.564 99.858 273.406 98.186 270.062 94.842C266.762 91.454 265.112 87.34 265.112 82.5C265.112 77.572 266.762 73.458 270.062 70.158C273.406 66.814 277.564 65.142 282.536 65.142C285.748 65.142 288.674 65.912 291.314 67.452C293.954 68.992 295.934 71.06 297.254 73.656L291.116 77.22C290.368 75.636 289.224 74.404 287.684 73.524C286.188 72.6 284.45 72.138 282.47 72.138C279.566 72.138 277.124 73.128 275.144 75.108C273.208 77.132 272.24 79.596 272.24 82.5C272.24 85.404 273.208 87.868 275.144 89.892C277.124 91.872 279.566 92.862 282.47 92.862C284.406 92.862 286.144 92.422 287.684 91.542C289.268 90.618 290.456 89.364 291.248 87.78L297.386 91.278C295.978 93.918 293.932 96.008 291.248 97.548C288.608 99.088 285.704 99.858 282.536 99.858ZM322.994 83.688V66H330.122V99H322.994V94.776C320.794 98.164 317.384 99.858 312.764 99.858C308.936 99.858 305.856 98.648 303.524 96.228C301.236 93.764 300.092 90.442 300.092 86.262V66H307.22V85.536C307.22 88 307.88 89.892 309.2 91.212C310.52 92.532 312.324 93.192 314.612 93.192C317.208 93.192 319.254 92.4 320.75 90.816C322.246 89.188 322.994 86.812 322.994 83.688ZM343.605 66V71.544C345.409 67.452 348.797 65.406 353.769 65.406V73.128C351.085 72.952 348.709 73.612 346.641 75.108C344.617 76.56 343.605 78.98 343.605 82.368V99H336.477V66H343.605ZM387.386 85.536H361.118C361.646 88 362.834 89.914 364.682 91.278C366.574 92.642 368.906 93.324 371.678 93.324C375.418 93.324 378.256 91.96 380.192 89.232L386.066 92.664C382.854 97.46 378.036 99.858 371.612 99.858C366.288 99.858 361.954 98.23 358.61 94.974C355.31 91.674 353.66 87.516 353.66 82.5C353.66 77.616 355.288 73.502 358.544 70.158C361.756 66.814 365.936 65.142 371.084 65.142C375.88 65.142 379.84 66.836 382.964 70.224C386.088 73.612 387.65 77.726 387.65 82.566C387.65 83.446 387.562 84.436 387.386 85.536ZM361.052 79.728H380.456C379.972 77.132 378.872 75.13 377.156 73.722C375.484 72.314 373.438 71.61 371.018 71.61C368.378 71.61 366.178 72.336 364.418 73.788C362.658 75.24 361.536 77.22 361.052 79.728ZM417.485 77.88V52.8H428.045V99H420.125L402.305 73.92V99H391.745V52.8H399.665L417.485 77.88ZM456.485 75.306L470.279 99H458.267L450.479 85.668L442.691 99H430.679L444.473 75.306L431.339 52.8H443.351L450.479 65.01L457.607 52.8H469.619L456.485 75.306ZM469.627 52.8H503.947V62.964H492.067V99H481.507V62.964H469.627V52.8Z" fill="black"/>
</svg>
