<svg width="506" height="161" viewBox="0 0 506 161" fill="none" xmlns="http://www.w3.org/2000/svg">
<path d="M360.741 138.371C361.68 138.861 362.415 139.545 362.946 140.423C363.477 141.281 363.743 142.26 363.743 143.363C363.743 145.119 363.12 146.578 361.874 147.742C360.629 148.906 359.108 149.488 357.311 149.488H348.124V128.051H356.638C358.393 128.051 359.874 128.623 361.078 129.766C362.303 130.909 362.916 132.318 362.916 133.992C362.916 135.829 362.191 137.289 360.741 138.371ZM356.638 131.358H351.646V136.993H356.638C357.414 136.993 358.067 136.728 358.598 136.197C359.128 135.646 359.394 134.972 359.394 134.176C359.394 133.379 359.128 132.716 358.598 132.185C358.067 131.634 357.414 131.358 356.638 131.358ZM351.646 146.18H357.311C358.128 146.18 358.812 145.895 359.363 145.323C359.935 144.731 360.221 144.016 360.221 143.179C360.221 142.342 359.935 141.638 359.363 141.066C358.812 140.474 358.128 140.178 357.311 140.178H351.646V146.18ZM377.959 136.35V134.176H381.267V149.488H377.959V147.283C376.714 149.018 374.928 149.886 372.6 149.886C370.497 149.886 368.701 149.11 367.21 147.558C365.72 146.007 364.975 144.098 364.975 141.832C364.975 139.566 365.72 137.657 367.21 136.105C368.701 134.553 370.497 133.778 372.6 133.778C374.928 133.778 376.714 134.635 377.959 136.35ZM369.66 145.354C370.579 146.272 371.732 146.732 373.121 146.732C374.509 146.732 375.662 146.272 376.581 145.354C377.5 144.414 377.959 143.24 377.959 141.832C377.959 140.423 377.5 139.259 376.581 138.341C375.662 137.401 374.509 136.932 373.121 136.932C371.732 136.932 370.579 137.401 369.66 138.341C368.741 139.259 368.282 140.423 368.282 141.832C368.282 143.22 368.741 144.394 369.66 145.354ZM395.289 136.381L388.154 146.364H395.595V149.488H383.652V147.283L390.818 137.299H383.958V134.176H395.289V136.381ZM408.959 136.35V134.176H412.267V149.488H408.959V147.283C407.714 149.018 405.927 149.886 403.6 149.886C401.497 149.886 399.7 149.11 398.21 147.558C396.72 146.007 395.974 144.098 395.974 141.832C395.974 139.566 396.72 137.657 398.21 136.105C399.7 134.553 401.497 133.778 403.6 133.778C405.927 133.778 407.714 134.635 408.959 136.35ZM400.66 145.354C401.579 146.272 402.732 146.732 404.12 146.732C405.509 146.732 406.662 146.272 407.581 145.354C408.5 144.414 408.959 143.24 408.959 141.832C408.959 140.423 408.5 139.259 407.581 138.341C406.662 137.401 405.509 136.932 404.12 136.932C402.732 136.932 401.579 137.401 400.66 138.341C399.741 139.259 399.282 140.423 399.282 141.832C399.282 143.22 399.741 144.394 400.66 145.354ZM427.33 136.35V134.176H430.637V149.488H427.33V147.283C426.085 149.018 424.298 149.886 421.971 149.886C419.868 149.886 418.071 149.11 416.581 147.558C415.091 146.007 414.345 144.098 414.345 141.832C414.345 139.566 415.091 137.657 416.581 136.105C418.071 134.553 419.868 133.778 421.971 133.778C424.298 133.778 426.085 134.635 427.33 136.35ZM419.031 145.354C419.95 146.272 421.103 146.732 422.491 146.732C423.88 146.732 425.033 146.272 425.952 145.354C426.871 144.414 427.33 143.24 427.33 141.832C427.33 140.423 426.871 139.259 425.952 138.341C425.033 137.401 423.88 136.932 422.491 136.932C421.103 136.932 419.95 137.401 419.031 138.341C418.112 139.259 417.653 140.423 417.653 141.832C417.653 143.22 418.112 144.394 419.031 145.354ZM436.881 134.176V136.748C437.718 134.849 439.29 133.9 441.597 133.9V137.483C440.352 137.401 439.249 137.708 438.29 138.402C437.351 139.076 436.881 140.198 436.881 141.77V149.488H433.574V134.176H436.881ZM454.974 139.688V128.051H459.874V149.488H456.199L447.93 137.851V149.488H443.03V128.051H446.705L454.974 139.688ZM473.07 138.494L479.471 149.488H473.897L470.284 143.302L466.67 149.488H461.096L467.497 138.494L461.403 128.051H466.976L470.284 133.716L473.591 128.051H479.165L473.07 138.494ZM479.168 128.051H495.093V132.767H489.58V149.488H484.681V132.767H479.168V128.051Z" fill="black"/>
<path d="M318.791 142.09C318.791 144.562 318.222 146.551 317.086 148.056C315.949 149.551 314.424 150.299 312.51 150.299C310.467 150.299 308.887 149.576 307.77 148.131L307.635 150H305.093V127.032H307.86V135.6C308.976 134.214 310.516 133.522 312.48 133.522C314.444 133.522 315.984 134.264 317.101 135.75C318.227 137.235 318.791 139.269 318.791 141.85V142.09ZM316.024 141.776C316.024 139.892 315.66 138.436 314.933 137.409C314.205 136.383 313.158 135.869 311.792 135.869C309.968 135.869 308.657 136.717 307.86 138.411V145.409C308.707 147.104 310.028 147.951 311.822 147.951C313.148 147.951 314.18 147.438 314.918 146.411C315.655 145.384 316.024 143.839 316.024 141.776ZM326.485 145.948L330.253 133.821H333.214L326.709 152.497C325.702 155.189 324.102 156.535 321.909 156.535L321.386 156.49L320.354 156.295V154.052L321.102 154.112C322.039 154.112 322.767 153.923 323.285 153.544C323.813 153.165 324.247 152.472 324.586 151.465L325.199 149.821L319.427 133.821H322.448L326.485 145.948Z" fill="black"/>
<path d="M142 112.931L69.6602 150V75.8619L142 38.793V112.931Z" fill="#2563EB" fillOpacity="0.55"/>
<path d="M69.6602 0V72.4138L142 36.2069L69.6602 0Z" fill="#2563EB" fillOpacity="0.15"/>
<path d="M0 38.793L69.6603 75.8619V150L0 112.931V38.793Z" fill="#2563EB" fillOpacity="0.86"/>
<path d="M174.62 52.8H191.648C196.004 52.8 199.634 54.252 202.538 57.156C205.486 60.06 206.96 63.668 206.96 67.98C206.96 72.248 205.486 75.856 202.538 78.804C199.634 81.708 196.004 83.16 191.648 83.16H182.21V99H174.62V52.8ZM182.21 76.032H191.648C193.892 76.032 195.74 75.284 197.192 73.788C198.644 72.248 199.37 70.312 199.37 67.98C199.37 65.648 198.644 63.734 197.192 62.238C195.74 60.698 193.892 59.928 191.648 59.928H182.21V76.032ZM217.591 66V71.544C219.395 67.452 222.783 65.406 227.755 65.406V73.128C225.071 72.952 222.695 73.612 220.627 75.108C218.603 76.56 217.591 78.98 217.591 82.368V99H210.463V66H217.591ZM257.413 94.842C254.069 98.186 249.955 99.858 245.071 99.858C240.187 99.858 236.073 98.186 232.729 94.842C229.341 91.454 227.647 87.34 227.647 82.5C227.647 77.66 229.341 73.546 232.729 70.158C236.073 66.814 240.187 65.142 245.071 65.142C249.955 65.142 254.069 66.814 257.413 70.158C260.801 73.546 262.495 77.66 262.495 82.5C262.495 87.34 260.801 91.454 257.413 94.842ZM234.775 82.5C234.775 85.492 235.765 87.978 237.745 89.958C239.725 91.938 242.167 92.928 245.071 92.928C247.975 92.928 250.417 91.938 252.397 89.958C254.377 87.978 255.367 85.492 255.367 82.5C255.367 79.508 254.377 77.022 252.397 75.042C250.417 73.062 247.975 72.072 245.071 72.072C242.167 72.072 239.725 73.062 237.745 75.042C235.765 77.022 234.775 79.508 234.775 82.5ZM282.536 99.858C277.564 99.858 273.406 98.186 270.062 94.842C266.762 91.454 265.112 87.34 265.112 82.5C265.112 77.572 266.762 73.458 270.062 70.158C273.406 66.814 277.564 65.142 282.536 65.142C285.748 65.142 288.674 65.912 291.314 67.452C293.954 68.992 295.934 71.06 297.254 73.656L291.116 77.22C290.368 75.636 289.224 74.404 287.684 73.524C286.188 72.6 284.45 72.138 282.47 72.138C279.566 72.138 277.124 73.128 275.144 75.108C273.208 77.132 272.24 79.596 272.24 82.5C272.24 85.404 273.208 87.868 275.144 89.892C277.124 91.872 279.566 92.862 282.47 92.862C284.406 92.862 286.144 92.422 287.684 91.542C289.268 90.618 290.456 89.364 291.248 87.78L297.386 91.278C295.978 93.918 293.932 96.008 291.248 97.548C288.608 99.088 285.704 99.858 282.536 99.858ZM322.994 83.688V66H330.122V99H322.994V94.776C320.794 98.164 317.384 99.858 312.764 99.858C308.936 99.858 305.856 98.648 303.524 96.228C301.236 93.764 300.092 90.442 300.092 86.262V66H307.22V85.536C307.22 88 307.88 89.892 309.2 91.212C310.52 92.532 312.324 93.192 314.612 93.192C317.208 93.192 319.254 92.4 320.75 90.816C322.246 89.188 322.994 86.812 322.994 83.688ZM343.605 66V71.544C345.409 67.452 348.797 65.406 353.769 65.406V73.128C351.085 72.952 348.709 73.612 346.641 75.108C344.617 76.56 343.605 78.98 343.605 82.368V99H336.477V66H343.605ZM387.386 85.536H361.118C361.646 88 362.834 89.914 364.682 91.278C366.574 92.642 368.906 93.324 371.678 93.324C375.418 93.324 378.256 91.96 380.192 89.232L386.066 92.664C382.854 97.46 378.036 99.858 371.612 99.858C366.288 99.858 361.954 98.23 358.61 94.974C355.31 91.674 353.66 87.516 353.66 82.5C353.66 77.616 355.288 73.502 358.544 70.158C361.756 66.814 365.936 65.142 371.084 65.142C375.88 65.142 379.84 66.836 382.964 70.224C386.088 73.612 387.65 77.726 387.65 82.566C387.65 83.446 387.562 84.436 387.386 85.536ZM361.052 79.728H380.456C379.972 77.132 378.872 75.13 377.156 73.722C375.484 72.314 373.438 71.61 371.018 71.61C368.378 71.61 366.178 72.336 364.418 73.788C362.658 75.24 361.536 77.22 361.052 79.728ZM417.485 77.88V52.8H428.045V99H420.125L402.305 73.92V99H391.745V52.8H399.665L417.485 77.88ZM456.485 75.306L470.279 99H458.267L450.479 85.668L442.691 99H430.679L444.473 75.306L431.339 52.8H443.351L450.479 65.01L457.607 52.8H469.619L456.485 75.306ZM469.627 52.8H503.947V62.964H492.067V99H481.507V62.964H469.627V52.8Z" fill="black"/>
</svg>
