<svg width="636" height="232" viewBox="0 0 636 232" fill="none" xmlns="http://www.w3.org/2000/svg">
<path d="M361.705 189.983C363.484 190.911 364.877 192.207 365.882 193.87C366.888 195.494 367.391 197.351 367.391 199.439C367.391 202.765 366.211 205.531 363.852 207.735C361.493 209.94 358.611 211.042 355.208 211.042H337.803V170.432H353.931C357.257 170.432 360.062 171.515 362.343 173.68C364.664 175.846 365.824 178.515 365.824 181.687C365.824 185.167 364.451 187.933 361.705 189.983ZM353.931 176.697H344.475V187.372H353.931C355.401 187.372 356.639 186.869 357.644 185.864C358.65 184.819 359.153 183.543 359.153 182.035C359.153 180.526 358.65 179.269 357.644 178.264C356.639 177.219 355.401 176.697 353.931 176.697ZM344.475 204.776H355.208C356.755 204.776 358.05 204.235 359.095 203.152C360.178 202.03 360.719 200.677 360.719 199.091C360.719 197.505 360.178 196.171 359.095 195.088C358.05 193.966 356.755 193.406 355.208 193.406H344.475V204.776ZM394.323 186.154V182.035H400.589V211.042H394.323V206.865C391.964 210.152 388.58 211.796 384.171 211.796C380.187 211.796 376.783 210.326 373.96 207.387C371.137 204.448 369.725 200.831 369.725 196.538C369.725 192.245 371.137 188.629 373.96 185.69C376.783 182.75 380.187 181.28 384.171 181.28C388.58 181.28 391.964 182.905 394.323 186.154ZM378.601 203.21C380.342 204.95 382.527 205.821 385.157 205.821C387.787 205.821 389.972 204.95 391.713 203.21C393.453 201.431 394.323 199.207 394.323 196.538C394.323 193.87 393.453 191.665 391.713 189.925C389.972 188.146 387.787 187.256 385.157 187.256C382.527 187.256 380.342 188.146 378.601 189.925C376.861 191.665 375.991 193.87 375.991 196.538C375.991 199.168 376.861 201.392 378.601 203.21ZM427.153 186.212L413.635 205.124H427.733V211.042H405.107V206.865L418.683 187.952H405.687V182.035H427.153V186.212ZM453.05 186.154V182.035H459.315V211.042H453.05V206.865C450.69 210.152 447.306 211.796 442.897 211.796C438.913 211.796 435.51 210.326 432.686 207.387C429.863 204.448 428.451 200.831 428.451 196.538C428.451 192.245 429.863 188.629 432.686 185.69C435.51 182.75 438.913 181.28 442.897 181.28C447.306 181.28 450.69 182.905 453.05 186.154ZM437.328 203.21C439.068 204.95 441.253 205.821 443.883 205.821C446.513 205.821 448.698 204.95 450.439 203.21C452.179 201.431 453.05 199.207 453.05 196.538C453.05 193.87 452.179 191.665 450.439 189.925C448.698 188.146 446.513 187.256 443.883 187.256C441.253 187.256 439.068 188.146 437.328 189.925C435.587 191.665 434.717 193.87 434.717 196.538C434.717 199.168 435.587 201.392 437.328 203.21ZM487.852 186.154V182.035H494.117V211.042H487.852V206.865C485.492 210.152 482.108 211.796 477.699 211.796C473.715 211.796 470.312 210.326 467.488 207.387C464.665 204.448 463.253 200.831 463.253 196.538C463.253 192.245 464.665 188.629 467.488 185.69C470.312 182.75 473.715 181.28 477.699 181.28C482.108 181.28 485.492 182.905 487.852 186.154ZM472.13 203.21C473.87 204.95 476.055 205.821 478.685 205.821C481.315 205.821 483.5 204.95 485.241 203.21C486.981 201.431 487.852 199.207 487.852 196.538C487.852 193.87 486.981 191.665 485.241 189.925C483.5 188.146 481.315 187.256 478.685 187.256C476.055 187.256 473.87 188.146 472.13 189.925C470.389 191.665 469.519 193.87 469.519 196.538C469.519 199.168 470.389 201.392 472.13 203.21ZM505.945 182.035V186.908C507.531 183.311 510.509 181.512 514.88 181.512V188.3C512.52 188.146 510.432 188.726 508.614 190.041C506.835 191.317 505.945 193.444 505.945 196.422V211.042H499.68V182.035H505.945ZM540.22 192.477V170.432H549.503V211.042H542.541L526.877 188.996V211.042H517.595V170.432H524.556L540.22 192.477ZM574.502 190.215L586.628 211.042H576.069L569.223 199.323L562.377 211.042H551.819L563.944 190.215L552.399 170.432H562.958L569.223 181.164L575.489 170.432H586.047L574.502 190.215ZM586.054 170.432H616.222V179.366H605.779V211.042H596.497V179.366H586.054V170.432Z" fill="black"/>
<path d="M282.233 197.132C282.233 201.816 281.157 205.583 279.004 208.435C276.851 211.268 273.962 212.684 270.336 212.684C266.464 212.684 263.471 211.315 261.356 208.577L261.101 212.118H256.285V168.607H261.526V184.838C263.641 182.213 266.559 180.901 270.279 180.901C273.999 180.901 276.917 182.308 279.032 185.122C281.166 187.935 282.233 191.788 282.233 196.679V197.132ZM276.993 196.538C276.993 192.968 276.303 190.211 274.925 188.266C273.546 186.321 271.563 185.348 268.976 185.348C265.52 185.348 263.037 186.953 261.526 190.164V203.421C263.131 206.632 265.633 208.237 269.033 208.237C271.544 208.237 273.499 207.264 274.896 205.319C276.294 203.374 276.993 200.447 276.993 196.538ZM296.809 204.441L303.948 181.467H309.557L297.234 216.848C295.327 221.947 292.296 224.497 288.141 224.497L287.15 224.412L285.195 224.044V219.794L286.611 219.908C288.387 219.908 289.765 219.549 290.747 218.831C291.748 218.114 292.57 216.801 293.212 214.894L294.373 211.778L283.439 181.467H289.161L296.809 204.441Z" fill="black"/>
<path d="M9.11447 25.3603H41.3725C49.6245 25.3603 56.5012 28.1109 62.0026 33.6123C67.5873 39.1137 70.3797 45.9487 70.3797 54.1174C70.3797 62.2027 67.5873 69.0378 62.0026 74.6225C56.5012 80.1238 49.6245 82.8745 41.3725 82.8745H23.493V112.882H9.11447V25.3603ZM23.493 69.3712H41.3725C45.6235 69.3712 49.1244 67.9542 51.8751 65.1201C54.6258 62.2027 56.0011 58.5352 56.0011 54.1174C56.0011 49.6996 54.6258 46.0737 51.8751 43.2397C49.1244 40.3223 45.6235 38.8636 41.3725 38.8636H23.493V69.3712ZM90.5194 50.3665V60.8691C93.9369 53.1171 100.355 49.2412 109.774 49.2412V63.8698C104.69 63.5364 100.188 64.7867 96.2708 67.6207C92.4366 70.3714 90.5194 74.9559 90.5194 81.3741V112.882H77.0161V50.3665H90.5194ZM165.958 105.005C159.623 111.34 151.83 114.507 142.577 114.507C133.325 114.507 125.531 111.34 119.196 105.005C112.778 98.5867 109.569 90.7931 109.569 81.6242C109.569 72.4553 112.778 64.6617 119.196 58.2434C125.531 51.9085 133.325 48.7411 142.577 48.7411C151.83 48.7411 159.623 51.9085 165.958 58.2434C172.376 64.6617 175.585 72.4553 175.585 81.6242C175.585 90.7931 172.376 98.5867 165.958 105.005ZM123.072 81.6242C123.072 87.2923 124.948 92.0018 128.699 95.7527C132.45 99.5036 137.076 101.379 142.577 101.379C148.079 101.379 152.705 99.5036 156.456 95.7527C160.207 92.0018 162.082 87.2923 162.082 81.6242C162.082 75.9561 160.207 71.2466 156.456 67.4957C152.705 63.7448 148.079 61.8693 142.577 61.8693C137.076 61.8693 132.45 63.7448 128.699 67.4957C124.948 71.2466 123.072 75.9561 123.072 81.6242ZM213.552 114.507C204.133 114.507 196.256 111.34 189.921 105.005C183.669 98.5867 180.544 90.7931 180.544 81.6242C180.544 72.2886 183.669 64.495 189.921 58.2434C196.256 51.9085 204.133 48.7411 213.552 48.7411C219.637 48.7411 225.18 50.1998 230.181 53.1171C235.182 56.0345 238.933 59.9522 241.434 64.8701L229.806 71.6217C228.389 68.621 226.222 66.2871 223.304 64.62C220.47 62.8696 217.178 61.9943 213.427 61.9943C207.925 61.9943 203.299 63.8698 199.548 67.6207C195.881 71.455 194.047 76.1228 194.047 81.6242C194.047 87.1256 195.881 91.7934 199.548 95.6277C203.299 99.3786 207.925 101.254 213.427 101.254C217.094 101.254 220.387 100.421 223.304 98.7535C226.305 97.003 228.556 94.6274 230.056 91.6267L241.684 98.2533C239.017 103.255 235.141 107.214 230.056 110.131C225.055 113.049 219.553 114.507 213.552 114.507ZM290.195 83.8748V50.3665H303.698V112.882H290.195V104.88C286.027 111.298 279.567 114.507 270.815 114.507C263.563 114.507 257.729 112.215 253.311 107.631C248.976 102.963 246.809 96.6696 246.809 88.751V50.3665H260.312V87.3756C260.312 92.0435 261.563 95.6277 264.063 98.1283C266.564 100.629 269.982 101.879 274.316 101.879C279.234 101.879 283.11 100.379 285.944 97.3781C288.778 94.294 290.195 89.7929 290.195 83.8748ZM329.241 50.3665V60.8691C332.658 53.1171 339.076 49.2412 348.495 49.2412V63.8698C343.411 63.5364 338.91 64.7867 334.992 67.6207C331.158 70.3714 329.241 74.9559 329.241 81.3741V112.882H315.737V50.3665H329.241ZM412.181 87.3756H362.419C363.419 92.0435 365.67 95.6694 369.171 98.2533C372.755 100.837 377.172 102.129 382.424 102.129C389.509 102.129 394.885 99.5453 398.553 94.3774L409.681 100.879C403.596 109.965 394.468 114.507 382.299 114.507C372.213 114.507 364.003 111.423 357.668 105.255C351.416 99.0035 348.29 91.1266 348.29 81.6242C348.29 72.3719 351.374 64.5783 357.543 58.2434C363.627 51.9085 371.546 48.7411 381.299 48.7411C390.384 48.7411 397.886 51.9502 403.804 58.3684C409.722 64.7867 412.681 72.5803 412.681 81.7492C412.681 83.4163 412.515 85.2918 412.181 87.3756ZM362.294 76.3729H399.053C398.136 71.455 396.052 67.6624 392.801 64.9951C389.634 62.3278 385.758 60.9941 381.173 60.9941C376.172 60.9941 372.005 62.3694 368.67 65.1201C365.336 67.8708 363.211 71.6217 362.294 76.3729ZM469.199 72.872V25.3603H489.204V112.882H474.2L440.442 65.3702V112.882H420.437V25.3603H435.441L469.199 72.872ZM543.083 67.9958L569.214 112.882H546.459L531.705 87.6257L516.951 112.882H494.196L520.327 67.9958L495.446 25.3603H518.202L531.705 48.491L545.208 25.3603H567.964L543.083 67.9958ZM567.979 25.3603H632.995V44.615H610.489V112.882H590.484V44.615H567.979V25.3603Z" fill="black"/>
</svg>
