<svg width="584" height="161" viewBox="0 0 584 161" fill="none" xmlns="http://www.w3.org/2000/svg">
<path d="M142 112.931L69.6602 150V75.8619L142 38.793V112.931Z" fill="#22D3EE" fill-opacity="0.55"/>
<path d="M69.6602 0V72.4138L142 36.2069L69.6602 0Z" fill="#22D3EE" fill-opacity="0.15"/>
<path d="M0 38.793L69.6603 75.8619V150L0 112.931V38.793Z" fill="#22D3EE"/>
<path d="M187.166 99H178.388L165.32 52.8H173.306L183.008 88.902L193.502 52.8H200.498L210.926 88.902L220.628 52.8H228.614L215.546 99H206.768L197 65.274L187.166 99ZM248.182 65.142C252.01 65.142 255.068 66.374 257.356 68.838C259.688 71.258 260.854 74.558 260.854 78.738V99H253.726V79.464C253.726 77 253.066 75.108 251.746 73.788C250.426 72.468 248.622 71.808 246.334 71.808C243.738 71.808 241.692 72.622 240.196 74.25C238.7 75.834 237.952 78.188 237.952 81.312V99H230.824V52.8H237.952V70.224C240.152 66.836 243.562 65.142 248.182 65.142ZM294.468 94.842C291.124 98.186 287.01 99.858 282.126 99.858C277.242 99.858 273.128 98.186 269.784 94.842C266.396 91.454 264.702 87.34 264.702 82.5C264.702 77.66 266.396 73.546 269.784 70.158C273.128 66.814 277.242 65.142 282.126 65.142C287.01 65.142 291.124 66.814 294.468 70.158C297.856 73.546 299.55 77.66 299.55 82.5C299.55 87.34 297.856 91.454 294.468 94.842ZM271.83 82.5C271.83 85.492 272.82 87.978 274.8 89.958C276.78 91.938 279.222 92.928 282.126 92.928C285.03 92.928 287.472 91.938 289.452 89.958C291.432 87.978 292.422 85.492 292.422 82.5C292.422 79.508 291.432 77.022 289.452 75.042C287.472 73.062 285.03 72.072 282.126 72.072C279.222 72.072 276.78 73.062 274.8 75.042C272.82 77.022 271.83 79.508 271.83 82.5ZM311.143 99H304.015V50.82H311.143V99ZM349.317 85.536H323.049C323.577 88 324.765 89.914 326.613 91.278C328.505 92.642 330.837 93.324 333.609 93.324C337.349 93.324 340.187 91.96 342.123 89.232L347.997 92.664C344.785 97.46 339.967 99.858 333.543 99.858C328.219 99.858 323.885 98.23 320.541 94.974C317.241 91.674 315.591 87.516 315.591 82.5C315.591 77.616 317.219 73.502 320.475 70.158C323.687 66.814 327.867 65.142 333.015 65.142C337.811 65.142 341.771 66.836 344.895 70.224C348.019 73.612 349.581 77.726 349.581 82.566C349.581 83.446 349.493 84.436 349.317 85.536ZM322.983 79.728H342.387C341.903 77.132 340.803 75.13 339.087 73.722C337.415 72.314 335.369 71.61 332.949 71.61C330.309 71.61 328.109 72.336 326.349 73.788C324.589 75.24 323.467 77.22 322.983 79.728ZM358.986 75.108C358.986 76.12 359.514 76.956 360.57 77.616C361.626 78.232 363.166 78.826 365.19 79.398C366.73 79.75 368.072 80.124 369.216 80.52C370.36 80.916 371.57 81.51 372.846 82.302C374.122 83.05 375.09 84.062 375.75 85.338C376.454 86.57 376.784 88.022 376.74 89.694C376.74 92.862 375.508 95.348 373.044 97.152C370.58 98.956 367.522 99.858 363.87 99.858C360.614 99.858 357.82 99.176 355.488 97.812C353.156 96.448 351.462 94.556 350.406 92.136L356.544 88.572C357.644 91.74 360.086 93.324 363.87 93.324C367.61 93.324 369.48 92.092 369.48 89.628C369.48 87.824 367.39 86.416 363.21 85.404C361.626 85.008 360.284 84.612 359.184 84.216C358.128 83.82 356.94 83.248 355.62 82.5C354.344 81.752 353.354 80.762 352.65 79.53C351.99 78.298 351.682 76.868 351.726 75.24C351.726 72.204 352.87 69.762 355.158 67.914C357.49 66.066 360.372 65.142 363.804 65.142C366.532 65.142 368.952 65.758 371.064 66.99C373.22 68.178 374.87 69.85 376.014 72.006L370.008 75.372C368.908 72.864 366.84 71.61 363.804 71.61C362.396 71.61 361.23 71.918 360.306 72.534C359.426 73.15 358.986 74.008 358.986 75.108ZM406.324 70.686V66H413.452V99H406.324V94.248C403.64 97.988 399.79 99.858 394.774 99.858C390.242 99.858 386.37 98.186 383.158 94.842C379.946 91.498 378.34 87.384 378.34 82.5C378.34 77.616 379.946 73.502 383.158 70.158C386.37 66.814 390.242 65.142 394.774 65.142C399.79 65.142 403.64 66.99 406.324 70.686ZM388.438 90.09C390.418 92.07 392.904 93.06 395.896 93.06C398.888 93.06 401.374 92.07 403.354 90.09C405.334 88.066 406.324 85.536 406.324 82.5C406.324 79.464 405.334 76.956 403.354 74.976C401.374 72.952 398.888 71.94 395.896 71.94C392.904 71.94 390.418 72.952 388.438 74.976C386.458 76.956 385.468 79.464 385.468 82.5C385.468 85.492 386.458 88.022 388.438 90.09ZM426.908 99H419.78V50.82H426.908V99ZM465.083 85.536H438.815C439.343 88 440.531 89.914 442.379 91.278C444.271 92.642 446.603 93.324 449.375 93.324C453.115 93.324 455.953 91.96 457.889 89.232L463.763 92.664C460.551 97.46 455.733 99.858 449.309 99.858C443.985 99.858 439.651 98.23 436.307 94.974C433.007 91.674 431.357 87.516 431.357 82.5C431.357 77.616 432.985 73.502 436.241 70.158C439.453 66.814 443.633 65.142 448.781 65.142C453.577 65.142 457.537 66.836 460.661 70.224C463.785 73.612 465.347 77.726 465.347 82.566C465.347 83.446 465.259 84.436 465.083 85.536ZM438.749 79.728H458.153C457.669 77.132 456.569 75.13 454.853 73.722C453.181 72.314 451.135 71.61 448.715 71.61C446.075 71.61 443.875 72.336 442.115 73.788C440.355 75.24 439.233 77.22 438.749 79.728ZM495.181 77.88V52.8H505.741V99H497.821L480.001 73.92V99H469.441V52.8H477.361L495.181 77.88ZM534.182 75.306L547.976 99H535.964L528.176 85.668L520.388 99H508.376L522.17 75.306L509.036 52.8H521.048L528.176 65.01L535.304 52.8H547.316L534.182 75.306ZM547.323 52.8H581.643V62.964H569.763V99H559.203V62.964H547.323V52.8Z" fill="black"/>
<path d="M438.741 138.371C439.68 138.861 440.415 139.545 440.946 140.423C441.477 141.281 441.743 142.26 441.743 143.363C441.743 145.119 441.12 146.578 439.874 147.742C438.629 148.906 437.108 149.488 435.311 149.488H426.124V128.051H434.638C436.393 128.051 437.874 128.623 439.078 129.766C440.303 130.909 440.916 132.318 440.916 133.992C440.916 135.829 440.191 137.289 438.741 138.371ZM434.638 131.358H429.646V136.993H434.638C435.414 136.993 436.067 136.728 436.598 136.197C437.128 135.646 437.394 134.972 437.394 134.176C437.394 133.379 437.128 132.716 436.598 132.185C436.067 131.634 435.414 131.358 434.638 131.358ZM429.646 146.18H435.311C436.128 146.18 436.812 145.895 437.363 145.323C437.935 144.731 438.221 144.016 438.221 143.179C438.221 142.342 437.935 141.638 437.363 141.066C436.812 140.474 436.128 140.178 435.311 140.178H429.646V146.18ZM455.959 136.35V134.176H459.267V149.488H455.959V147.283C454.714 149.018 452.928 149.886 450.6 149.886C448.497 149.886 446.701 149.11 445.21 147.558C443.72 146.007 442.975 144.098 442.975 141.832C442.975 139.566 443.72 137.657 445.21 136.105C446.701 134.553 448.497 133.778 450.6 133.778C452.928 133.778 454.714 134.635 455.959 136.35ZM447.66 145.354C448.579 146.272 449.732 146.732 451.121 146.732C452.509 146.732 453.662 146.272 454.581 145.354C455.5 144.414 455.959 143.24 455.959 141.832C455.959 140.423 455.5 139.259 454.581 138.341C453.662 137.401 452.509 136.932 451.121 136.932C449.732 136.932 448.579 137.401 447.66 138.341C446.741 139.259 446.282 140.423 446.282 141.832C446.282 143.22 446.741 144.394 447.66 145.354ZM473.289 136.381L466.154 146.364H473.595V149.488H461.652V147.283L468.818 137.299H461.958V134.176H473.289V136.381ZM486.959 136.35V134.176H490.267V149.488H486.959V147.283C485.714 149.018 483.927 149.886 481.6 149.886C479.497 149.886 477.7 149.11 476.21 147.558C474.72 146.007 473.974 144.098 473.974 141.832C473.974 139.566 474.72 137.657 476.21 136.105C477.7 134.553 479.497 133.778 481.6 133.778C483.927 133.778 485.714 134.635 486.959 136.35ZM478.66 145.354C479.579 146.272 480.732 146.732 482.12 146.732C483.509 146.732 484.662 146.272 485.581 145.354C486.5 144.414 486.959 143.24 486.959 141.832C486.959 140.423 486.5 139.259 485.581 138.341C484.662 137.401 483.509 136.932 482.12 136.932C480.732 136.932 479.579 137.401 478.66 138.341C477.741 139.259 477.282 140.423 477.282 141.832C477.282 143.22 477.741 144.394 478.66 145.354ZM505.33 136.35V134.176H508.637V149.488H505.33V147.283C504.085 149.018 502.298 149.886 499.971 149.886C497.868 149.886 496.071 149.11 494.581 147.558C493.091 146.007 492.345 144.098 492.345 141.832C492.345 139.566 493.091 137.657 494.581 136.105C496.071 134.553 497.868 133.778 499.971 133.778C502.298 133.778 504.085 134.635 505.33 136.35ZM497.031 145.354C497.95 146.272 499.103 146.732 500.491 146.732C501.88 146.732 503.033 146.272 503.952 145.354C504.871 144.414 505.33 143.24 505.33 141.832C505.33 140.423 504.871 139.259 503.952 138.341C503.033 137.401 501.88 136.932 500.491 136.932C499.103 136.932 497.95 137.401 497.031 138.341C496.112 139.259 495.653 140.423 495.653 141.832C495.653 143.22 496.112 144.394 497.031 145.354ZM514.881 134.176V136.748C515.718 134.849 517.29 133.9 519.597 133.9V137.483C518.352 137.401 517.249 137.708 516.29 138.402C515.351 139.076 514.881 140.198 514.881 141.77V149.488H511.574V134.176H514.881ZM532.974 139.688V128.051H537.874V149.488H534.199L525.93 137.851V149.488H521.03V128.051H524.705L532.974 139.688ZM551.07 138.494L557.471 149.488H551.897L548.284 143.302L544.67 149.488H539.096L545.497 138.494L539.403 128.051H544.976L548.284 133.716L551.591 128.051H557.165L551.07 138.494ZM557.168 128.051H573.093V132.767H567.58V149.488H562.681V132.767H557.168V128.051Z" fill="black"/>
<path d="M396.791 142.09C396.791 144.562 396.222 146.551 395.086 148.056C393.949 149.551 392.424 150.299 390.51 150.299C388.467 150.299 386.887 149.576 385.77 148.131L385.635 150H383.093V127.032H385.86V135.6C386.976 134.214 388.516 133.522 390.48 133.522C392.444 133.522 393.984 134.264 395.101 135.75C396.227 137.235 396.791 139.269 396.791 141.85V142.09ZM394.024 141.776C394.024 139.892 393.66 138.436 392.933 137.409C392.205 136.383 391.158 135.869 389.792 135.869C387.968 135.869 386.657 136.717 385.86 138.411V145.409C386.707 147.104 388.028 147.951 389.822 147.951C391.148 147.951 392.18 147.438 392.918 146.411C393.655 145.384 394.024 143.839 394.024 141.776ZM404.485 145.948L408.253 133.821H411.214L404.709 152.497C403.702 155.189 402.102 156.535 399.909 156.535L399.386 156.49L398.354 156.295V154.052L399.102 154.112C400.039 154.112 400.767 153.923 401.285 153.544C401.813 153.165 402.247 152.472 402.586 151.465L403.199 149.821L397.427 133.821H400.448L404.485 145.948Z" fill="black"/>
</svg>
